  0
SECTION
  2
HEADER
  9
$ACADVER
  1
AC1015
  9
$ACADMAINTVER
 70
     6
  9
$DWGCODEPAGE
  3
ANSI_1252
  9
$INSBASE
 10
0.0
 20
0.0
 30
0.0
  9
$EXTMIN
 10
0.0
 20
-0.1492521368
 30
0.0
  9
$EXTMAX
 10
950.0
 20
5.9700854701
 30
0.0
  9
$LIMMIN
 10
0.0
 20
0.0
  9
$LIMMAX
 10
420.0
 20
297.0
  9
$ORTHOMODE
 70
     0
  9
$REGENMODE
 70
     1
  9
$FILLMODE
 70
     1
  9
$QTEXTMODE
 70
     0
  9
$MIRRTEXT
 70
     1
  9
$LTSCALE
 40
1.0
  9
$ATTMODE
 70
     1
  9
$TEXTSIZE
 40
3.5
  9
$TRACEWID
 40
1.0
  9
$TEXTSTYLE
  7
Standard
  9
$CLAYER
  8
0
  9
$CELTYPE
  6
ByLayer
  9
$CECOLOR
 62
   256
  9
$CELTSCALE
 40
1.0
  9
$DISPSILH
 70
     0
  9
$DIMSCALE
 40
1.0
  9
$DIMASZ
 40
3.302
  9
$DIMEXO
 40
0.0
  9
$DIMDLI
 40
3.75
  9
$DIMRND
 40
0.0
  9
$DIMDLE
 40
0.0
  9
$DIMEXE
 40
1.0
  9
$DIMTP
 40
0.0
  9
$DIMTM
 40
0.0
  9
$DIMTXT
 40
3.5
  9
$DIMCEN
 40
2.5
  9
$DIMTSZ
 40
0.0
  9
$DIMTOL
 70
     0
  9
$DIMLIM
 70
     0
  9
$DIMTIH
 70
     1
  9
$DIMTOH
 70
     1
  9
$DIMSE1
 70
     0
  9
$DIMSE2
 70
     0
  9
$DIMTAD
 70
     1
  9
$DIMZIN
 70
     1
  9
$DIMBLK
  1

  9
$DIMASO
 70
     1
  9
$DIMSHO
 70
     1
  9
$DIMPOST
  1

  9
$DIMAPOST
  1

  9
$DIMALT
 70
     0
  9
$DIMALTD
 70
     3
  9
$DIMALTF
 40
0.0393700787
  9
$DIMLFAC
 40
1.0
  9
$DIMTOFL
 70
     1
  9
$DIMTVP
 40
0.0
  9
$DIMTIX
 70
     0
  9
$DIMSOXD
 70
     0
  9
$DIMSAH
 70
     0
  9
$DIMBLK1
  1

  9
$DIMBLK2
  1

  9
$DIMSTYLE
  2
ISO-25
  9
$DIMCLRD
 70
     0
  9
$DIMCLRE
 70
     0
  9
$DIMCLRT
 70
     0
  9
$DIMTFAC
 40
1.0
  9
$DIMGAP
 40
1.524
  9
$DIMJUST
 70
     0
  9
$DIMSD1
 70
     0
  9
$DIMSD2
 70
     0
  9
$DIMTOLJ
 70
     0
  9
$DIMTZIN
 70
     1
  9
$DIMALTZ
 70
     0
  9
$DIMALTTZ
 70
     0
  9
$DIMUPT
 70
     0
  9
$DIMDEC
 70
     2
  9
$DIMTDEC
 70
     2
  9
$DIMALTU
 70
     2
  9
$DIMALTTD
 70
     3
  9
$DIMTXSTY
  7
Standard
  9
$DIMAUNIT
 70
     0
  9
$DIMADEC
 70
     2
  9
$DIMALTRND
 40
0.0
  9
$DIMAZIN
 70
     0
  9
$DIMDSEP
 70
    44
  9
$DIMATFIT
 70
     3
  9
$DIMFRAC
 70
     0
  9
$DIMLDRBLK
  1

  9
$DIMLUNIT
 70
     2
  9
$DIMLWD
 70
    -2
  9
$DIMLWE
 70
    -2
  9
$DIMTMOVE
 70
     0
  9
$LUNITS
 70
     2
  9
$LUPREC
 70
     2
  9
$SKETCHINC
 40
1.0
  9
$FILLETRAD
 40
0.0
  9
$AUNITS
 70
     0
  9
$AUPREC
 70
     2
  9
$MENU
  1
.
  9
$ELEVATION
 40
0.0
  9
$PELEVATION
 40
0.0
  9
$THICKNESS
 40
0.0
  9
$LIMCHECK
 70
     0
  9
$CHAMFERA
 40
0.0
  9
$CHAMFERB
 40
0.0
  9
$CHAMFERC
 40
0.0
  9
$CHAMFERD
 40
0.0
  9
$SKPOLY
 70
     0
  9
$TDCREATE
 40
2460241.62228897
  9
$TDUCREATE
 40
2460241.538955637
  9
$TDUPDATE
 40
2460241.622619201
  9
$TDUUPDATE
 40
2460241.539285868
  9
$TDINDWG
 40
0.0000000116
  9
$TDUSRTIMER
 40
0.0000000116
  9
$USRTIMER
 70
     1
  9
$ANGBASE
 50
0.0
  9
$ANGDIR
 70
     0
  9
$PDMODE
 70
     0
  9
$PDSIZE
 40
-1.0
  9
$PLINEWID
 40
0.0
  9
$SPLFRAME
 70
     0
  9
$SPLINETYPE
 70
     6
  9
$SPLINESEGS
 70
     8
  9
$HANDSEED
  5
BB
  9
$SURFTAB1
 70
     6
  9
$SURFTAB2
 70
     6
  9
$SURFTYPE
 70
     6
  9
$SURFU
 70
     6
  9
$SURFV
 70
     6
  9
$UCSBASE
  2

  9
$UCSNAME
  2

  9
$UCSORG
 10
0.0
 20
0.0
 30
0.0
  9
$UCSXDIR
 10
1.0
 20
0.0
 30
0.0
  9
$UCSYDIR
 10
0.0
 20
1.0
 30
0.0
  9
$UCSORTHOREF
  2

  9
$UCSORTHOVIEW
 70
     0
  9
$UCSORGTOP
 10
0.0
 20
0.0
 30
0.0
  9
$UCSORGBOTTOM
 10
0.0
 20
0.0
 30
0.0
  9
$UCSORGLEFT
 10
0.0
 20
0.0
 30
0.0
  9
$UCSORGRIGHT
 10
0.0
 20
0.0
 30
0.0
  9
$UCSORGFRONT
 10
0.0
 20
0.0
 30
0.0
  9
$UCSORGBACK
 10
0.0
 20
0.0
 30
0.0
  9
$PUCSBASE
  2

  9
$PUCSNAME
  2

  9
$PUCSORG
 10
0.0
 20
0.0
 30
0.0
  9
$PUCSXDIR
 10
1.0
 20
0.0
 30
0.0
  9
$PUCSYDIR
 10
0.0
 20
1.0
 30
0.0
  9
$PUCSORTHOREF
  2

  9
$PUCSORTHOVIEW
 70
     0
  9
$PUCSORGTOP
 10
0.0
 20
0.0
 30
0.0
  9
$PUCSORGBOTTOM
 10
0.0
 20
0.0
 30
0.0
  9
$PUCSORGLEFT
 10
0.0
 20
0.0
 30
0.0
  9
$PUCSORGRIGHT
 10
0.0
 20
0.0
 30
0.0
  9
$PUCSORGFRONT
 10
0.0
 20
0.0
 30
0.0
  9
$PUCSORGBACK
 10
0.0
 20
0.0
 30
0.0
  9
$USERI1
 70
     0
  9
$USERI2
 70
     0
  9
$USERI3
 70
     0
  9
$USERI4
 70
     0
  9
$USERI5
 70
     0
  9
$USERR1
 40
0.0
  9
$USERR2
 40
0.0
  9
$USERR3
 40
0.0
  9
$USERR4
 40
0.0
  9
$USERR5
 40
0.0
  9
$WORLDVIEW
 70
     1
  9
$SHADEDGE
 70
     3
  9
$SHADEDIF
 70
    70
  9
$TILEMODE
 70
     1
  9
$MAXACTVP
 70
    64
  9
$PINSBASE
 10
0.0
 20
0.0
 30
0.0
  9
$PLIMCHECK
 70
     0
  9
$PEXTMIN
 10
1.0000000000E+20
 20
1.0000000000E+20
 30
1.0000000000E+20
  9
$PEXTMAX
 10
-1.0000000000E+20
 20
-1.0000000000E+20
 30
-1.0000000000E+20
  9
$PLIMMIN
 10
0.0
 20
0.0
  9
$PLIMMAX
 10
420.0
 20
297.0
  9
$UNITMODE
 70
     0
  9
$VISRETAIN
 70
     1
  9
$PLINEGEN
 70
     0
  9
$PSLTSCALE
 70
     1
  9
$TREEDEPTH
 70
  3020
  9
$CMLSTYLE
  2
Standard
  9
$CMLJUST
 70
     0
  9
$CMLSCALE
 40
20.0
  9
$PROXYGRAPHICS
 70
     1
  9
$MEASUREMENT
 70
     1
  9
$CELWEIGHT
370
    -1
  9
$ENDCAPS
280
     0
  9
$JOINSTYLE
280
     0
  9
$LWDISPLAY
290
     1
  9
$INSUNITS
 70
     4
  9
$HYPERLINKBASE
  1

  9
$STYLESHEET
  1

  9
$XEDIT
290
     1
  9
$CEPSNTYPE
380
     0
  9
$PSTYLEMODE
290
     1
  9
$FINGERPRINTGUID
  2
{dcaf3b97-ca60-4324-a0ec-74f43bdd99c9}
  9
$VERSIONGUID
  2
{FAEB1C32-E019-11D5-929B-00C0DF256EC4}
  9
$EXTNAMES
290
     1
  9
$PSVPSCALE
 40
0.0
  9
$OLESTARTUP
290
     0
  0
ENDSEC
  0
SECTION
  2
CLASSES
  0
CLASS
  1
ACDBDICTIONARYWDFLT
  2
AcDbDictionaryWithDefault
  3
ObjectDBX Classes
 90
        0
280
     0
281
     0
  0
CLASS
  1
VISUALSTYLE
  2
AcDbVisualStyle
  3
ObjectDBX Classes
 90
     4095
280
     0
281
     0
  0
CLASS
  1
MATERIAL
  2
AcDbMaterial
  3
ObjectDBX Classes
 90
     1153
280
     0
281
     0
  0
CLASS
  1
SCALE
  2
AcDbScale
  3
ObjectDBX Classes
 90
     1153
280
     0
281
     0
  0
CLASS
  1
TABLESTYLE
  2
AcDbTableStyle
  3
ObjectDBX Classes
 90
     4095
280
     0
281
     0
  0
CLASS
  1
MLEADERSTYLE
  2
AcDbMLeaderStyle
  3
ACDB_MLEADERSTYLE_CLASS
 90
     4095
280
     0
281
     0
  0
CLASS
  1
SUN
  2
AcDbSun
  3
SCENEOE
 90
     1153
280
     0
281
     0
  0
CLASS
  1
ACDBPLACEHOLDER
  2
AcDbPlaceHolder
  3
ObjectDBX Classes
 90
        0
280
     0
281
     0
  0
CLASS
  1
LAYOUT
  2
AcDbLayout
  3
ObjectDBX Classes
 90
        0
280
     0
281
     0
  0
ENDSEC
  0
SECTION
  2
TABLES
  0
TABLE
  2
VPORT
  5
8
330
0
100
AcDbSymbolTable
 70
     1
  0
VPORT
  5
29
330
8
100
AcDbSymbolTableRecord
100
AcDbViewportTableRecord
  2
*Active
 70
     0
 10
0.0
 20
0.0
 11
1.0
 21
1.0
 12
475.0
 22
2.9104166667
 13
0.0
 23
0.0
 14
10.0
 24
10.0
 15
10.0
 25
10.0
 16
0.0
 26
0.0
 36
1.0
 17
0.0
 27
0.0
 37
0.0
 40
6.241724359
 41
155.2455610454
 42
50.0
 43
0.0
 44
0.0
 50
0.0
 51
0.0
 71
     0
 72
   100
 73
     1
 74
     3
 75
     0
 76
     0
 77
     0
 78
     0
281
     0
 65
     1
110
0.0
120
0.0
130
0.0
111
1.0
121
0.0
131
0.0
112
0.0
122
1.0
132
0.0
 79
     0
146
0.0
  0
ENDTAB
  0
TABLE
  2
LTYPE
  5
5
330
0
100
AcDbSymbolTable
 70
     6
  0
LTYPE
  5
14
330
5
100
AcDbSymbolTableRecord
100
AcDbLinetypeTableRecord
  2
ByBlock
 70
     0
  3

 72
    65
 73
     0
 40
0.0
  0
LTYPE
  5
15
330
5
100
AcDbSymbolTableRecord
100
AcDbLinetypeTableRecord
  2
ByLayer
 70
     0
  3

 72
    65
 73
     0
 40
0.0
  0
LTYPE
  5
16
330
5
100
AcDbSymbolTableRecord
100
AcDbLinetypeTableRecord
  2
Continuous
 70
     0
  3
Solid line
 72
    65
 73
     0
 40
0.0
  0
LTYPE
  5
5E
330
5
100
AcDbSymbolTableRecord
100
AcDbLinetypeTableRecord
  2
HIDDEN
 70
     0
  3
Hidden __ __ __ __ __ __ __ __ __ __ __ __ __ __
 72
    65
 73
     2
 40
1.905
 49
1.27
 74
     0
 49
-0.635
 74
     0
  0
LTYPE
  5
5F
330
5
100
AcDbSymbolTableRecord
100
AcDbLinetypeTableRecord
  2
PHANTOM
 70
     0
  3
Phantom ______  __  __  ______  __  __  ______
 72
    65
 73
     6
 40
12.7
 49
6.35
 74
     0
 49
-1.27
 74
     0
 49
1.27
 74
     0
 49
-1.27
 74
     0
 49
1.27
 74
     0
 49
-1.27
 74
     0
  0
LTYPE
  5
60
330
5
100
AcDbSymbolTableRecord
100
AcDbLinetypeTableRecord
  2
CENTER
 70
     0
  3
Center ____ _ ____ _ ____ _ ____ _ ____ _ ____
 72
    65
 73
     4
 40
10.16
 49
6.35
 74
     0
 49
-1.27
 74
     0
 49
1.27
 74
     0
 49
-1.27
 74
     0
  0
LTYPE
  5
61
330
5
100
AcDbSymbolTableRecord
100
AcDbLinetypeTableRecord
  2
CENTERX2
 70
     0
  3
Center (2x) ________  __  ________  __  _____
 72
    65
 73
     4
 40
20.32
 49
12.7
 74
     0
 49
-2.54
 74
     0
 49
2.54
 74
     0
 49
-2.54
 74
     0
  0
LTYPE
  5
62
330
5
100
AcDbSymbolTableRecord
100
AcDbLinetypeTableRecord
  2
DOT2
 70
     0
  3
Dot (.5x) ........................................
 72
    65
 73
     2
 40
0.635
 49
0.0
 74
     0
 49
-0.635
 74
     0
  0
ENDTAB
  0
TABLE
  2
LAYER
  5
2
330
0
100
AcDbSymbolTable
 70
     1
  0
LAYER
  5
10
330
2
100
AcDbSymbolTableRecord
100
AcDbLayerTableRecord
  2
0
 70
     0
 62
     7
  6
Continuous
370
    -3
390
F
  0
ENDTAB
  0
TABLE
  2
STYLE
  5
3
330
0
100
AcDbSymbolTable
 70
     2
  0
STYLE
  5
11
330
3
100
AcDbSymbolTableRecord
100
AcDbTextStyleTableRecord
  2
Standard
 70
     0
 40
0.0
 41
1.0
 50
0.0
 71
     0
 42
3.5
  3
txt
  4

  0
STYLE
  5
B8
330
3
100
AcDbSymbolTableRecord
100
AcDbTextStyleTableRecord
  2
SLDTEXTSTYLE0
 70
     0
 40
0.0
 41
0.7
 50
0.0
 71
     0
 42
3.5
  3
TXT
  4
bigfont
  0
ENDTAB
  0
TABLE
  2
VIEW
  5
6
330
0
100
AcDbSymbolTable
 70
     0
  0
ENDTAB
  0
TABLE
  2
UCS
  5
7
330
0
100
AcDbSymbolTable
 70
     0
  0
ENDTAB
  0
TABLE
  2
APPID
  5
9
330
0
100
AcDbSymbolTable
 70
     1
  0
APPID
  5
12
330
9
100
AcDbSymbolTableRecord
100
AcDbRegAppTableRecord
  2
ACAD
 70
     0
  0
ENDTAB
  0
TABLE
  2
DIMSTYLE
  5
A
330
0
100
AcDbSymbolTable
 70
     1
100
AcDbDimStyleTable
  0
DIMSTYLE
105
27
330
A
100
AcDbSymbolTableRecord
100
AcDbDimStyleTableRecord
  2
ISO-25
 70
     0
 41
2.5
 42
0.625
 43
3.75
 44
1.25
 73
     0
 74
     0
 77
     1
 78
     8
140
2.5
141
2.5
143
0.0393700787
147
0.625
171
     3
172
     1
178
     0
271
     2
272
     2
274
     3
278
    44
283
     0
284
     8
340
11
  0
ENDTAB
  0
TABLE
  2
BLOCK_RECORD
  5
1
330
0
100
AcDbSymbolTable
 70
     1
  0
BLOCK_RECORD
  5
1F
330
1
100
AcDbSymbolTableRecord
100
AcDbBlockTableRecord
  2
*Model_Space
340
22
  0
BLOCK_RECORD
  5
1B
330
1
100
AcDbSymbolTableRecord
100
AcDbBlockTableRecord
  2
*Paper_Space
340
1E
  0
BLOCK_RECORD
  5
23
330
1
100
AcDbSymbolTableRecord
100
AcDbBlockTableRecord
  2
*Paper_Space0
340
26
  0
ENDTAB
  0
ENDSEC
  0
SECTION
  2
BLOCKS
  0
BLOCK
  5
20
330
1F
100
AcDbEntity
  8
0
100
AcDbBlockBegin
  2
*Model_Space
 70
     0
 10
0.0
 20
0.0
 30
0.0
  3
*Model_Space
  1

  0
ENDBLK
  5
21
330
1F
100
AcDbEntity
  8
0
100
AcDbBlockEnd
  0
BLOCK
  5
1C
330
1B
100
AcDbEntity
 67
     1
  8
0
100
AcDbBlockBegin
  2
*Paper_Space
 70
     0
 10
0.0
 20
0.0
 30
0.0
  3
*Paper_Space
  1

  0
ENDBLK
  5
1D
330
1B
100
AcDbEntity
 67
     1
  8
0
100
AcDbBlockEnd
  0
BLOCK
  5
24
330
23
100
AcDbEntity
  8
0
100
AcDbBlockBegin
  2
*Paper_Space0
 70
     0
 10
0.0
 20
0.0
 30
0.0
  3
*Paper_Space0
  1

  0
ENDBLK
  5
25
330
23
100
AcDbEntity
  8
0
100
AcDbBlockEnd
  0
ENDSEC
  0
SECTION
  2
ENTITIES
  0
LINE
  5
63
330
1F
100
AcDbEntity
  8
0
  6
Continuous
 62
     7
100
AcDbLine
 10
0.0
 20
0.0
 30
0.0
 11
0.0
 21
5.0
 31
0.0
  0
LINE
  5
64
330
1F
100
AcDbEntity
  8
0
  6
Continuous
 62
     7
100
AcDbLine
 10
0.0
 20
5.0
 30
0.0
 11
1.0
 21
5.0
 31
0.0
  0
LINE
  5
65
330
1F
100
AcDbEntity
  8
0
  6
Continuous
 62
     7
100
AcDbLine
 10
1.0
 20
5.0
 30
0.0
 11
1.0
 21
0.0
 31
0.0
  0
LINE
  5
66
330
1F
100
AcDbEntity
  8
0
  6
Continuous
 62
     7
100
AcDbLine
 10
1.0
 20
0.0
 30
0.0
 11
0.0
 21
0.0
 31
0.0
  0
LINE
  5
67
330
1F
100
AcDbEntity
  8
0
  6
Continuous
 62
     7
100
AcDbLine
 10
100.0
 20
0.0
 30
0.0
 11
100.0
 21
5.0
 31
0.0
  0
LINE
  5
68
330
1F
100
AcDbEntity
  8
0
  6
Continuous
 62
     7
100
AcDbLine
 10
100.0
 20
5.0
 30
0.0
 11
101.0
 21
5.0
 31
0.0
  0
LINE
  5
69
330
1F
100
AcDbEntity
  8
0
  6
Continuous
 62
     7
100
AcDbLine
 10
101.0
 20
5.0
 30
0.0
 11
101.0
 21
0.0
 31
0.0
  0
LINE
  5
6A
330
1F
100
AcDbEntity
  8
0
  6
Continuous
 62
     7
100
AcDbLine
 10
101.0
 20
0.0
 30
0.0
 11
100.0
 21
0.0
 31
0.0
  0
LINE
  5
6B
330
1F
100
AcDbEntity
  8
0
  6
Continuous
 62
     7
100
AcDbLine
 10
200.0
 20
0.0
 30
0.0
 11
200.0
 21
5.0
 31
0.0
  0
LINE
  5
6C
330
1F
100
AcDbEntity
  8
0
  6
Continuous
 62
     7
100
AcDbLine
 10
200.0
 20
5.0
 30
0.0
 11
201.0
 21
5.0
 31
0.0
  0
LINE
  5
6D
330
1F
100
AcDbEntity
  8
0
  6
Continuous
 62
     7
100
AcDbLine
 10
201.0
 20
5.0
 30
0.0
 11
201.0
 21
0.0
 31
0.0
  0
LINE
  5
6E
330
1F
100
AcDbEntity
  8
0
  6
Continuous
 62
     7
100
AcDbLine
 10
201.0
 20
0.0
 30
0.0
 11
200.0
 21
0.0
 31
0.0
  0
LINE
  5
6F
330
1F
100
AcDbEntity
  8
0
  6
Continuous
 62
     7
100
AcDbLine
 10
300.0
 20
0.0
 30
0.0
 11
300.0
 21
5.0
 31
0.0
  0
LINE
  5
70
330
1F
100
AcDbEntity
  8
0
  6
Continuous
 62
     7
100
AcDbLine
 10
300.0
 20
5.0
 30
0.0
 11
301.0
 21
5.0
 31
0.0
  0
LINE
  5
71
330
1F
100
AcDbEntity
  8
0
  6
Continuous
 62
     7
100
AcDbLine
 10
301.0
 20
5.0
 30
0.0
 11
301.0
 21
0.0
 31
0.0
  0
LINE
  5
72
330
1F
100
AcDbEntity
  8
0
  6
Continuous
 62
     7
100
AcDbLine
 10
301.0
 20
0.0
 30
0.0
 11
300.0
 21
0.0
 31
0.0
  0
LINE
  5
73
330
1F
100
AcDbEntity
  8
0
  6
Continuous
 62
     7
100
AcDbLine
 10
400.0
 20
0.0
 30
0.0
 11
400.0
 21
5.0
 31
0.0
  0
LINE
  5
74
330
1F
100
AcDbEntity
  8
0
  6
Continuous
 62
     7
100
AcDbLine
 10
400.0
 20
5.0
 30
0.0
 11
401.0
 21
5.0
 31
0.0
  0
LINE
  5
75
330
1F
100
AcDbEntity
  8
0
  6
Continuous
 62
     7
100
AcDbLine
 10
401.0
 20
5.0
 30
0.0
 11
401.0
 21
0.0
 31
0.0
  0
LINE
  5
76
330
1F
100
AcDbEntity
  8
0
  6
Continuous
 62
     7
100
AcDbLine
 10
401.0
 20
0.0
 30
0.0
 11
400.0
 21
0.0
 31
0.0
  0
LINE
  5
77
330
1F
100
AcDbEntity
  8
0
  6
Continuous
 62
     7
100
AcDbLine
 10
500.0
 20
0.0
 30
0.0
 11
500.0
 21
5.0
 31
0.0
  0
LINE
  5
78
330
1F
100
AcDbEntity
  8
0
  6
Continuous
 62
     7
100
AcDbLine
 10
500.0
 20
5.0
 30
0.0
 11
501.0
 21
5.0
 31
0.0
  0
LINE
  5
79
330
1F
100
AcDbEntity
  8
0
  6
Continuous
 62
     7
100
AcDbLine
 10
501.0
 20
5.0
 30
0.0
 11
501.0
 21
0.0
 31
0.0
  0
LINE
  5
7A
330
1F
100
AcDbEntity
  8
0
  6
Continuous
 62
     7
100
AcDbLine
 10
501.0
 20
0.0
 30
0.0
 11
500.0
 21
0.0
 31
0.0
  0
LINE
  5
7B
330
1F
100
AcDbEntity
  8
0
  6
Continuous
 62
     7
100
AcDbLine
 10
600.0
 20
0.0
 30
0.0
 11
600.0
 21
5.0
 31
0.0
  0
LINE
  5
7C
330
1F
100
AcDbEntity
  8
0
  6
Continuous
 62
     7
100
AcDbLine
 10
600.0
 20
5.0
 30
0.0
 11
601.0
 21
5.0
 31
0.0
  0
LINE
  5
7D
330
1F
100
AcDbEntity
  8
0
  6
Continuous
 62
     7
100
AcDbLine
 10
601.0
 20
5.0
 30
0.0
 11
601.0
 21
0.0
 31
0.0
  0
LINE
  5
7E
330
1F
100
AcDbEntity
  8
0
  6
Continuous
 62
     7
100
AcDbLine
 10
601.0
 20
0.0
 30
0.0
 11
600.0
 21
0.0
 31
0.0
  0
LINE
  5
7F
330
1F
100
AcDbEntity
  8
0
  6
Continuous
 62
     7
100
AcDbLine
 10
700.0
 20
0.0
 30
0.0
 11
700.0
 21
5.0
 31
0.0
  0
LINE
  5
80
330
1F
100
AcDbEntity
  8
0
  6
Continuous
 62
     7
100
AcDbLine
 10
700.0
 20
5.0
 30
0.0
 11
701.0
 21
5.0
 31
0.0
  0
LINE
  5
81
330
1F
100
AcDbEntity
  8
0
  6
Continuous
 62
     7
100
AcDbLine
 10
701.0
 20
5.0
 30
0.0
 11
701.0
 21
0.0
 31
0.0
  0
LINE
  5
82
330
1F
100
AcDbEntity
  8
0
  6
Continuous
 62
     7
100
AcDbLine
 10
701.0
 20
0.0
 30
0.0
 11
700.0
 21
0.0
 31
0.0
  0
LINE
  5
83
330
1F
100
AcDbEntity
  8
0
  6
Continuous
 62
     7
100
AcDbLine
 10
800.0
 20
0.0
 30
0.0
 11
800.0
 21
5.0
 31
0.0
  0
LINE
  5
84
330
1F
100
AcDbEntity
  8
0
  6
Continuous
 62
     7
100
AcDbLine
 10
800.0
 20
5.0
 30
0.0
 11
801.0
 21
5.0
 31
0.0
  0
LINE
  5
85
330
1F
100
AcDbEntity
  8
0
  6
Continuous
 62
     7
100
AcDbLine
 10
801.0
 20
5.0
 30
0.0
 11
801.0
 21
0.0
 31
0.0
  0
LINE
  5
86
330
1F
100
AcDbEntity
  8
0
  6
Continuous
 62
     7
100
AcDbLine
 10
801.0
 20
0.0
 30
0.0
 11
800.0
 21
0.0
 31
0.0
  0
LINE
  5
87
330
1F
100
AcDbEntity
  8
0
  6
Continuous
 62
     7
100
AcDbLine
 10
900.0
 20
0.0
 30
0.0
 11
900.0
 21
5.0
 31
0.0
  0
LINE
  5
88
330
1F
100
AcDbEntity
  8
0
  6
Continuous
 62
     7
100
AcDbLine
 10
900.0
 20
5.0
 30
0.0
 11
901.0
 21
5.0
 31
0.0
  0
LINE
  5
89
330
1F
100
AcDbEntity
  8
0
  6
Continuous
 62
     7
100
AcDbLine
 10
901.0
 20
5.0
 30
0.0
 11
901.0
 21
0.0
 31
0.0
  0
LINE
  5
8A
330
1F
100
AcDbEntity
  8
0
  6
Continuous
 62
     7
100
AcDbLine
 10
901.0
 20
0.0
 30
0.0
 11
900.0
 21
0.0
 31
0.0
  0
LINE
  5
8C
330
1F
100
AcDbEntity
  8
0
  6
Continuous
 62
     7
100
AcDbLine
 10
50.0
 20
0.0
 30
0.0
 11
50.0
 21
5.0
 31
0.0
  0
LINE
  5
8D
330
1F
100
AcDbEntity
  8
0
  6
Continuous
 62
     7
100
AcDbLine
 10
150.0
 20
0.0
 30
0.0
 11
150.0
 21
5.0
 31
0.0
  0
LINE
  5
8E
330
1F
100
AcDbEntity
  8
0
  6
Continuous
 62
     7
100
AcDbLine
 10
250.0
 20
0.0
 30
0.0
 11
250.0
 21
5.0
 31
0.0
  0
LINE
  5
8F
330
1F
100
AcDbEntity
  8
0
  6
Continuous
 62
     7
100
AcDbLine
 10
350.0
 20
0.0
 30
0.0
 11
350.0
 21
5.0
 31
0.0
  0
LINE
  5
90
330
1F
100
AcDbEntity
  8
0
  6
Continuous
 62
     7
100
AcDbLine
 10
450.0
 20
0.0
 30
0.0
 11
450.0
 21
5.0
 31
0.0
  0
LINE
  5
91
330
1F
100
AcDbEntity
  8
0
  6
Continuous
 62
     7
100
AcDbLine
 10
550.0
 20
0.0
 30
0.0
 11
550.0
 21
5.0
 31
0.0
  0
LINE
  5
92
330
1F
100
AcDbEntity
  8
0
  6
Continuous
 62
     7
100
AcDbLine
 10
650.0
 20
0.0
 30
0.0
 11
650.0
 21
5.0
 31
0.0
  0
LINE
  5
93
330
1F
100
AcDbEntity
  8
0
  6
Continuous
 62
     7
100
AcDbLine
 10
750.0
 20
0.0
 30
0.0
 11
750.0
 21
5.0
 31
0.0
  0
LINE
  5
94
330
1F
100
AcDbEntity
  8
0
  6
Continuous
 62
     7
100
AcDbLine
 10
850.0
 20
0.0
 30
0.0
 11
850.0
 21
5.0
 31
0.0
  0
LINE
  5
95
330
1F
100
AcDbEntity
  8
0
  6
Continuous
 62
     7
100
AcDbLine
 10
950.0
 20
0.0
 30
0.0
 11
950.0
 21
5.0
 31
0.0
  0
LWPOLYLINE
  5
96
330
1F
100
AcDbEntity
  8
0
  6
Continuous
 62
     7
100
AcDbPolyline
 90
      100
 70
   128
 43
0.0
 10
1.2238780037
 20
2.908084602
 10
1.2273763021
 20
3.1879323584
 10
1.2390366253
 20
3.4514556624
 10
1.2588591747
 20
3.6998205462
 10
1.285677918
 20
3.9306949452
 10
1.3194928552
 20
4.1452448918
 10
1.362636051
 20
4.343470386
 10
1.4127754407
 20
4.5253714276
 10
1.4699110243
 20
4.6909480168
 10
1.5340428018
 20
4.8436982505
 10
1.6051707732
 20
4.9871202257
 10
1.6832949386
 20
5.12004791
 10
1.7672492655
 20
5.2448133681
 10
1.857033754
 20
5.3590845353
 10
1.9526484041
 20
5.4640274439
 10
2.0552592481
 20
5.5584760617
 10
2.1648662861
 20
5.6447624533
 10
2.2791374533
 20
5.720554554
 10
2.3969067174
 20
5.7870183961
 10
2.5170080462
 20
5.8429879474
 10
2.6417735043
 20
5.8884632078
 10
2.768871027
 20
5.9246102097
 10
2.8994666466
 20
5.9502629207
 10
3.0323943309
 20
5.9654213408
 10
3.1699861445
 20
5.9700854701
 10
3.1699861445
 20
5.9700854701
 10
3.3087439904
 20
5.9654213408
 10
3.4451697716
 20
5.9502629207
 10
3.5769314236
 20
5.9246102097
 10
3.706361011
 20
5.8884632078
 10
3.8322925013
 20
5.8429879474
 10
3.9547258948
 20
5.7870183961
 10
4.0748272236
 20
5.720554554
 10
4.1902644231
 20
5.6435964209
 10
4.3010374933
 20
5.5573100294
 10
4.4071464343
 20
5.4593633146
 10
4.5062591814
 20
5.3520883413
 10
4.5995417668
 20
5.2354851095
 10
4.6869941907
 20
5.1072215545
 10
4.768616453
 20
4.9696297409
 10
4.8432425214
 20
4.8215436365
 10
4.9132044605
 20
4.6629632412
 10
4.9750041733
 20
4.4927225227
 10
5.0298076923
 20
4.3084894164
 10
5.0752829527
 20
4.1102639223
 10
5.1125959869
 20
3.8980460403
 10
5.1417467949
 20
3.6718357706
 10
5.1627353766
 20
3.4304670807
 10
5.1743956998
 20
3.1762720353
 10
5.1790598291
 20
2.908084602
 10
5.1790598291
 20
2.908084602
 10
5.1743956998
 20
2.6410632011
 10
5.1627353766
 20
2.388034188
 10
5.1417467949
 20
2.1478315304
 10
5.1137620192
 20
1.922787293
 10
5.076448985
 20
1.7117354434
 10
5.0309737246
 20
1.5146759816
 10
4.9785022703
 20
1.3304428753
 10
4.9167025574
 20
1.1613681891
 10
4.8479066506
 20
1.0039538261
 10
4.7732805823
 20
0.857033754
 10
4.6928243523
 20
0.7194419404
 10
4.6053719284
 20
0.5911783854
 10
4.5120893429
 20
0.4734091213
 10
4.4118105636
 20
0.366134148
 10
4.3057016226
 20
0.2681874332
 10
4.19376252
 20
0.1807350093
 10
4.0771592882
 20
0.1037768763
 10
3.9570579594
 20
0.0361470019
 10
3.8334585337
 20
-0.0198225494
 10
3.7075270433
 20
-0.0664638421
 10
3.5780974559
 20
-0.102610844
 10
3.4451697716
 20
-0.128263555
 10
3.3087439904
 20
-0.1445880075
 10
3.1699861445
 20
-0.1492521368
 10
3.1699861445
 20
-0.1492521368
 10
3.0323943309
 20
-0.1445880075
 10
2.8994666466
 20
-0.1294295873
 10
2.768871027
 20
-0.1037768763
 10
2.6429395366
 20
-0.0687959068
 10
2.5193401108
 20
-0.0244866787
 10
2.3992387821
 20
0.0314828726
 10
2.2826355502
 20
0.0967806824
 10
2.1695304153
 20
0.1714067508
 10
2.0610894097
 20
0.25652711
 10
1.9584785657
 20
0.3509757278
 10
1.8628639156
 20
0.4559186365
 10
1.7730794271
 20
0.571355836
 10
1.6891251002
 20
0.6949552618
 10
1.6110009348
 20
0.8290489784
 10
1.5387069311
 20
0.9736369858
 10
1.4734091213
 20
1.1275532519
 10
1.4151075053
 20
1.2942958734
 10
1.3638020833
 20
1.4773629474
 10
1.3218249199
 20
1.6767544738
 10
1.2868439503
 20
1.8913044204
 10
1.2588591747
 20
2.1210127871
 10
1.2390366253
 20
2.3682116386
 10
1.2273763021
 20
2.6305689103
 10
1.2238782051
 20
2.908084602
  0
LWPOLYLINE
  5
97
330
1F
100
AcDbEntity
  8
0
  6
Continuous
 62
     7
100
AcDbPolyline
 90
       85
 70
   128
 43
0.0
 10
1.746260561
 20
2.9104166667
 10
1.7485927484
 20
2.677210203
 10
1.7579210069
 20
2.4579961271
 10
1.7719133948
 20
2.2527744391
 10
1.7905699119
 20
2.0638772035
 10
1.8162226229
 20
1.8889723558
 10
1.8465394631
 20
1.7280598958
 10
1.882686465
 20
1.582305856
 10
1.9246636285
 20
1.4517102364
 10
1.9724709535
 20
1.3316089076
 10
2.0249424079
 20
1.219669805
 10
2.0820779915
 20
1.1147268964
 10
2.1450437366
 20
1.0179462139
 10
2.2138396434
 20
0.9281617254
 10
2.2872996795
 20
0.8453734308
 10
2.3665898771
 20
0.7707473624
 10
2.4505442041
 20
0.703117488
 10
2.6277811165
 20
0.5911783854
 10
2.8096821581
 20
0.5118881878
 10
2.9962473291
 20
0.4640808627
 10
3.1874766293
 20
0.4477564103
 10
3.1874766293
 20
0.4477564103
 10
3.3798719618
 20
0.4629148304
 10
3.5664371327
 20
0.5107221554
 10
3.7460061098
 20
0.5876802885
 10
3.9197449252
 20
0.6972873264
 10
4.0025332198
 20
0.7637511685
 10
4.0794913528
 20
0.8372112046
 10
4.1517853566
 20
0.9199994992
 10
4.219415231
 20
1.0097839877
 10
4.2812149439
 20
1.1065646701
 10
4.3383505275
 20
1.2126736111
 10
4.3896559495
 20
1.325778746
 10
4.4362972423
 20
1.4470461071
 10
4.4362972423
 20
1.4470461071
 10
4.4876026643
 20
1.6032944378
 10
4.5330779247
 20
1.7665389623
 10
4.5703909589
 20
1.9379457131
 10
4.6018738315
 20
2.1163486579
 10
4.6251944778
 20
2.3029138288
 10
4.6426849626
 20
2.497641226
 10
4.6531792535
 20
2.7005308494
 10
4.6566773504
 20
2.9104166667
 10
4.6566773504
 20
2.9104166667
 10
4.6531792535
 20
3.120302484
 10
4.6450170272
 20
3.3208600427
 10
4.6286925748
 20
3.5109233106
 10
4.6077039931
 20
3.69165832
 10
4.5797192174
 20
3.8630650708
 10
4.5470703125
 20
4.0239775307
 10
4.5062591814
 20
4.1755617321
 10
4.4607839209
 20
4.3178176749
 10
4.4094784989
 20
4.4507453592
 10
4.3535089476
 20
4.5731787527
 10
4.2928752671
 20
4.6874499199
 10
4.2275774573
 20
4.7923928285
 10
4.1576155182
 20
4.8880074786
 10
4.0818234175
 20
4.9742938702
 10
4.0025332198
 20
5.0512520032
 10
3.9185788929
 20
5.1188818777
 10
3.7425080128
 20
5.2296549479
 10
3.5629390358
 20
5.3101111779
 10
3.3775398972
 20
5.3567524706
 10
3.1874766293
 20
5.3730769231
 10
3.1874766293
 20
5.3730769231
 10
2.9950812967
 20
5.3567524706
 10
2.8073500935
 20
5.3101111779
 10
2.6266150841
 20
5.2296549479
 10
2.4505442041
 20
5.1188818777
 10
2.3665898771
 20
5.0524180355
 10
2.2884657118
 20
4.9777919671
 10
2.2150056757
 20
4.8950036725
 10
2.1473758013
 20
4.805219184
 10
2.0844100561
 20
4.7084385016
 10
2.0261084402
 20
4.6034955929
 10
1.9736369858
 20
4.4915564904
 10
1.9258296608
 20
4.3714551616
 10
1.8838524973
 20
4.2408595419
 10
1.8477054955
 20
4.0951055021
 10
1.8162226229
 20
3.9353590745
 10
1.7917359442
 20
3.7592881944
 10
1.7719133948
 20
3.5692249265
 10
1.7579210069
 20
3.3651692708
 10
1.7485927484
 20
3.1447891627
 10
1.7462606838
 20
2.9104166667
  0
LWPOLYLINE
  5
98
330
1F
100
AcDbEntity
  8
0
  6
Continuous
 62
     7
100
AcDbPolyline
 90
       12
 70
   128
 43
0.0
 10
102.4609804153
 20
5.8208333333
 10
103.5372863248
 20
5.8208333333
 10
103.5372863248
 20
5.8208333333
 10
103.5372863248
 20
0.0
 10
103.5372863248
 20
0.0
 10
103.0149038462
 20
0.0
 10
103.0149038462
 20
0.0
 10
103.0149038462
 20
5.2238247863
 10
103.0149038462
 20
5.2238247863
 10
102.1193910256
 20
5.2238247863
 10
102.1193910256
 20
5.2238247863
 10
102.4610384949
 20
5.8208333333
  0
LWPOLYLINE
  5
99
330
1F
100
AcDbEntity
  8
0
  6
Continuous
 62
     7
100
AcDbPolyline
 90
      100
 70
   128
 43
0.0
 10
105.7013869286
 20
2.908084602
 10
105.7049404046
 20
3.1879323584
 10
105.7166007278
 20
3.4514556624
 10
105.7364232772
 20
3.6998205462
 10
105.7632420206
 20
3.9306949452
 10
105.7970569578
 20
4.1452448918
 10
105.8402001536
 20
4.343470386
 10
105.8903395433
 20
4.5253714276
 10
105.9474751269
 20
4.6909480168
 10
106.0116069044
 20
4.8436982505
 10
106.0827348758
 20
4.9871202257
 10
106.1608590411
 20
5.12004791
 10
106.2448133681
 20
5.2448133681
 10
106.3345978566
 20
5.3590845353
 10
106.4302125067
 20
5.4640274439
 10
106.5328233507
 20
5.5584760617
 10
106.6424303886
 20
5.6447624533
 10
106.7567015558
 20
5.720554554
 10
106.87447082
 20
5.7870183961
 10
106.9945721488
 20
5.8429879474
 10
107.1193376068
 20
5.8884632078
 10
107.2464351295
 20
5.9246102097
 10
107.3770307492
 20
5.9502629207
 10
107.5099584335
 20
5.9654213408
 10
107.6475502471
 20
5.9700854701
 10
107.6475502471
 20
5.9700854701
 10
107.7863080929
 20
5.9654213408
 10
107.9227338742
 20
5.9502629207
 10
108.0544955262
 20
5.9246102097
 10
108.1839251135
 20
5.8884632078
 10
108.3098566039
 20
5.8429879474
 10
108.4322899973
 20
5.7870183961
 10
108.5523913261
 20
5.720554554
 10
108.6678285256
 20
5.6435964209
 10
108.7786015959
 20
5.5573100294
 10
108.8847105369
 20
5.4593633146
 10
108.9838232839
 20
5.3520883413
 10
109.0771058694
 20
5.2354851095
 10
109.1645582933
 20
5.1072215545
 10
109.2461805556
 20
4.9696297409
 10
109.3208066239
 20
4.8215436365
 10
109.390768563
 20
4.6629632412
 10
109.4525682759
 20
4.4927225227
 10
109.5073717949
 20
4.3084894164
 10
109.5528470553
 20
4.1102639223
 10
109.5901600895
 20
3.8980460403
 10
109.6193108974
 20
3.6718357706
 10
109.6402994792
 20
3.4304670807
 10
109.6519598024
 20
3.1762720353
 10
109.6566239316
 20
2.908084602
 10
109.6566239316
 20
2.908084602
 10
109.6519598024
 20
2.6410632011
 10
109.6402994792
 20
2.388034188
 10
109.6193108974
 20
2.1478315304
 10
109.5913261218
 20
1.922787293
 10
109.5540130876
 20
1.7117354434
 10
109.5085378272
 20
1.5146759816
 10
109.4560663729
 20
1.3304428753
 10
109.39426666
 20
1.1613681891
 10
109.3254707532
 20
1.0039538261
 10
109.2508446848
 20
0.857033754
 10
109.1703884549
 20
0.7194419404
 10
109.082936031
 20
0.5911783854
 10
108.9896534455
 20
0.4734091213
 10
108.8893746661
 20
0.366134148
 10
108.7832657252
 20
0.2681874332
 10
108.6713266226
 20
0.1807350093
 10
108.5547233908
 20
0.1037768763
 10
108.434622062
 20
0.0361470019
 10
108.3110226362
 20
-0.0198225494
 10
108.1850911458
 20
-0.0664638421
 10
108.0556615585
 20
-0.102610844
 10
107.9227338742
 20
-0.128263555
 10
107.7863080929
 20
-0.1445880075
 10
107.6475502471
 20
-0.1492521368
 10
107.6475502471
 20
-0.1492521368
 10
107.5099584335
 20
-0.1445880075
 10
107.3770307492
 20
-0.1294295873
 10
107.2464351295
 20
-0.1037768763
 10
107.1205036392
 20
-0.0687959068
 10
106.9969042134
 20
-0.0244866787
 10
106.8768028846
 20
0.0314828726
 10
106.7601996528
 20
0.0967806824
 10
106.6470945179
 20
0.1714067508
 10
106.5386535123
 20
0.25652711
 10
106.4360426683
 20
0.3509757278
 10
106.3404280182
 20
0.4559186365
 10
106.2506435296
 20
0.571355836
 10
106.1666892027
 20
0.6949552618
 10
106.0885650374
 20
0.8290489784
 10
106.0162710337
 20
0.9736369858
 10
105.9509732238
 20
1.1275532519
 10
105.8926716079
 20
1.2942958734
 10
105.8413661859
 20
1.4773629474
 10
105.7993890224
 20
1.6767544738
 10
105.7644080529
 20
1.8913044204
 10
105.7364232772
 20
2.1210127871
 10
105.7166007278
 20
2.3682116386
 10
105.7049404046
 20
2.6305689103
 10
105.7014423077
 20
2.908084602
  0
LWPOLYLINE
  5
9A
330
1F
100
AcDbEntity
  8
0
  6
Continuous
 62
     7
100
AcDbPolyline
 90
       85
 70
   128
 43
0.0
 10
106.22382164
 20
2.9104166667
 10
106.226156851
 20
2.677210203
 10
106.2354851095
 20
2.4579961271
 10
106.2494774973
 20
2.2527744391
 10
106.2681340144
 20
2.0638772035
 10
106.2937867254
 20
1.8889723558
 10
106.3241035657
 20
1.7280598958
 10
106.3602505676
 20
1.582305856
 10
106.402227731
 20
1.4517102364
 10
106.4500350561
 20
1.3316089076
 10
106.5025065104
 20
1.219669805
 10
106.559642094
 20
1.1147268964
 10
106.6226078392
 20
1.0179462139
 10
106.691403746
 20
0.9281617254
 10
106.7648637821
 20
0.8453734308
 10
106.8441539797
 20
0.7707473624
 10
106.9281083066
 20
0.703117488
 10
107.105345219
 20
0.5911783854
 10
107.2872462607
 20
0.5118881878
 10
107.4738114316
 20
0.4640808627
 10
107.6650407318
 20
0.4477564103
 10
107.6650407318
 20
0.4477564103
 10
107.8574360644
 20
0.4629148304
 10
108.0440012353
 20
0.5107221554
 10
108.2235702123
 20
0.5876802885
 10
108.3973090278
 20
0.6972873264
 10
108.4800973224
 20
0.7637511685
 10
108.5570554554
 20
0.8372112046
 10
108.6293494591
 20
0.9199994992
 10
108.6969793336
 20
1.0097839877
 10
108.7587790465
 20
1.1065646701
 10
108.8159146301
 20
1.2126736111
 10
108.8672200521
 20
1.325778746
 10
108.9138613448
 20
1.4470461071
 10
108.9138613448
 20
1.4470461071
 10
108.9651667668
 20
1.6032944378
 10
109.0106420272
 20
1.7665389623
 10
109.0479550614
 20
1.9379457131
 10
109.079437934
 20
2.1163486579
 10
109.1027585804
 20
2.3029138288
 10
109.1202490652
 20
2.497641226
 10
109.130743356
 20
2.7005308494
 10
109.134241453
 20
2.9104166667
 10
109.134241453
 20
2.9104166667
 10
109.130743356
 20
3.120302484
 10
109.1225811298
 20
3.3208600427
 10
109.1062566774
 20
3.5109233106
 10
109.0852680956
 20
3.69165832
 10
109.05728332
 20
3.8630650708
 10
109.0246344151
 20
4.0239775307
 10
108.9838232839
 20
4.1755617321
 10
108.9383480235
 20
4.3178176749
 10
108.8870426015
 20
4.4507453592
 10
108.8310730502
 20
4.5731787527
 10
108.7704393697
 20
4.6874499199
 10
108.7051415598
 20
4.7923928285
 10
108.6351796207
 20
4.8880074786
 10
108.55938752
 20
4.9742938702
 10
108.4800973224
 20
5.0512520032
 10
108.3961429955
 20
5.1188818777
 10
108.2200721154
 20
5.2296549479
 10
108.0405031384
 20
5.3101111779
 10
107.8551039997
 20
5.3567524706
 10
107.6650407318
 20
5.3730769231
 10
107.6650407318
 20
5.3730769231
 10
107.4726453993
 20
5.3567524706
 10
107.284914196
 20
5.3101111779
 10
107.1041791867
 20
5.2296549479
 10
106.9281083066
 20
5.1188818777
 10
106.8441539797
 20
5.0524180355
 10
106.7660298144
 20
4.9777919671
 10
106.6925697783
 20
4.8950036725
 10
106.6249399038
 20
4.805219184
 10
106.5619741587
 20
4.7084385016
 10
106.5036725427
 20
4.6034955929
 10
106.4512010884
 20
4.4915564904
 10
106.4033937634
 20
4.3714551616
 10
106.3614165999
 20
4.2408595419
 10
106.325269598
 20
4.0951055021
 10
106.2937867254
 20
3.9353590745
 10
106.2693000467
 20
3.7592881944
 10
106.2494774973
 20
3.5692249265
 10
106.2354851095
 20
3.3651692708
 10
106.226156851
 20
3.1447891627
 10
106.2238247863
 20
2.9104166667
  0
LWPOLYLINE
  5
9B
330
1F
100
AcDbEntity
  8
0
  6
Continuous
 62
     7
100
AcDbPolyline
 90
      106
 70
   128
 43
0.0
 10
201.9701004028
 20
4.0298076923
 10
201.4477564103
 20
4.0298076923
 10
201.4477564103
 20
4.0298076923
 10
201.4617487981
 20
4.237361445
 10
201.4920656384
 20
4.4355869391
 10
201.5375408988
 20
4.6233181424
 10
201.600506644
 20
4.8028871194
 10
201.6786308093
 20
4.9719618056
 10
201.7730794271
 20
5.1328742655
 10
201.8838524973
 20
5.2832924346
 10
202.01095002
 20
5.4243823451
 10
202.1497078659
 20
5.5526459001
 10
202.2977939704
 20
5.6634189704
 10
202.4528762687
 20
5.7567015558
 10
202.614954761
 20
5.8336596888
 10
202.7863615118
 20
5.8931273371
 10
202.9647644565
 20
5.9362705329
 10
203.1513296274
 20
5.9619232439
 10
203.3460570246
 20
5.9700854701
 10
203.3460570246
 20
5.9700854701
 10
203.5372863248
 20
5.9619232439
 10
203.7203533988
 20
5.9374365652
 10
203.8929261819
 20
5.8977914663
 10
204.0573367388
 20
5.8418219151
 10
204.2112530048
 20
5.768361879
 10
204.3558410123
 20
5.6797434228
 10
204.4922667935
 20
5.5759665465
 10
204.6181982839
 20
5.4546991854
 10
204.7324694511
 20
5.3229375334
 10
204.8304161659
 20
5.1853457198
 10
204.9143704928
 20
5.0419237447
 10
204.9831663996
 20
4.8938376402
 10
205.0356378539
 20
4.7387553419
 10
205.0741169204
 20
4.5778428819
 10
205.0962715345
 20
4.4122662927
 10
205.1044337607
 20
4.2396935096
 10
205.1044337607
 20
4.2396935096
 10
205.0892753405
 20
3.9971587874
 10
205.0438000801
 20
3.7627862914
 10
204.9691740118
 20
3.5365760216
 10
204.8630650708
 20
3.3173619458
 10
204.7954351963
 20
3.2054228432
 10
204.713812934
 20
3.0829894498
 10
204.6181982839
 20
2.9512277978
 10
204.508591246
 20
2.8113039196
 10
204.3838257879
 20
2.6597197182
 10
204.2462339744
 20
2.4999732906
 10
204.0934837407
 20
2.3308986044
 10
203.9267411191
 20
2.1513296274
 10
203.9267411191
 20
2.1513296274
 10
202.4703667535
 20
0.597008547
 10
202.4703667535
 20
0.597008547
 10
205.1790598291
 20
0.597008547
 10
205.1790598291
 20
0.597008547
 10
205.1790598291
 20
0.0
 10
205.1790598291
 20
0.0
 10
201.2238782051
 20
0.0
 10
201.2238782051
 20
0.0
 10
203.4813167735
 20
2.4090227698
 10
203.4813167735
 20
2.4090227698
 10
203.6457273304
 20
2.5815955529
 10
203.7949794671
 20
2.7425080128
 10
203.9290731838
 20
2.8917601496
 10
204.0480084802
 20
3.0293519631
 10
204.1517853566
 20
3.1564494858
 10
204.2415698451
 20
3.270720653
 10
204.3150298811
 20
3.3744975294
 10
204.3744975294
 20
3.4666140825
 10
204.4654480502
 20
3.6415189303
 10
204.53074586
 20
3.8210879073
 10
204.5692249265
 20
4.0041549813
 10
204.5820512821
 20
4.1930522169
 10
204.5820512821
 20
4.1930522169
 10
204.5762211205
 20
4.3119875134
 10
204.5587306357
 20
4.4262586806
 10
204.53074586
 20
4.5358657185
 10
204.4911007612
 20
4.6419746595
 10
204.4386293069
 20
4.7445855035
 10
204.3756635617
 20
4.8413661859
 10
204.3022035256
 20
4.9346487714
 10
204.2159171341
 20
5.0244332599
 10
204.1214685163
 20
5.1060555222
 10
204.0223557692
 20
5.1771834936
 10
203.9185788929
 20
5.2366511418
 10
203.808971855
 20
5.2856244992
 10
203.6935346554
 20
5.3241035657
 10
203.574599359
 20
5.350922309
 10
203.4498339009
 20
5.3672467615
 10
203.3192382813
 20
5.3730769231
 10
203.3192382813
 20
5.3730769231
 10
203.1828125
 20
5.3672467615
 10
203.0522168803
 20
5.350922309
 10
202.9274514223
 20
5.3229375334
 10
202.8085161258
 20
5.2844584669
 10
202.6954109909
 20
5.2354851095
 10
202.5881360176
 20
5.174851429
 10
202.4866912059
 20
5.1025574252
 10
202.3910765558
 20
5.0197691306
 10
202.3036241319
 20
4.9276525775
 10
202.2266659989
 20
4.8262077658
 10
202.1590361245
 20
4.7154346955
 10
202.1007345085
 20
4.596499399
 10
202.0529271835
 20
4.468235844
 10
202.0156141493
 20
4.3306440304
 10
201.9876293737
 20
4.1848899907
 10
201.9701388889
 20
4.0298076923
  0
LWPOLYLINE
  5
9C
330
1F
100
AcDbEntity
  8
0
  6
Continuous
 62
     7
100
AcDbPolyline
 90
      100
 70
   128
 43
0.0
 10
205.7013511658
 20
2.908084602
 10
205.7049404046
 20
3.1879323584
 10
205.7166007278
 20
3.4514556624
 10
205.7364232772
 20
3.6998205462
 10
205.7632420206
 20
3.9306949452
 10
205.7970569578
 20
4.1452448918
 10
205.8402001536
 20
4.343470386
 10
205.8903395433
 20
4.5253714276
 10
205.9474751269
 20
4.6909480168
 10
206.0116069044
 20
4.8436982505
 10
206.0827348758
 20
4.9871202257
 10
206.1608590411
 20
5.12004791
 10
206.2448133681
 20
5.2448133681
 10
206.3345978566
 20
5.3590845353
 10
206.4302125067
 20
5.4640274439
 10
206.5328233507
 20
5.5584760617
 10
206.6424303886
 20
5.6447624533
 10
206.7567015558
 20
5.720554554
 10
206.87447082
 20
5.7870183961
 10
206.9945721488
 20
5.8429879474
 10
207.1193376068
 20
5.8884632078
 10
207.2464351295
 20
5.9246102097
 10
207.3770307492
 20
5.9502629207
 10
207.5099584335
 20
5.9654213408
 10
207.6475502471
 20
5.9700854701
 10
207.6475502471
 20
5.9700854701
 10
207.7863080929
 20
5.9654213408
 10
207.9227338742
 20
5.9502629207
 10
208.0544955262
 20
5.9246102097
 10
208.1839251135
 20
5.8884632078
 10
208.3098566039
 20
5.8429879474
 10
208.4322899973
 20
5.7870183961
 10
208.5523913261
 20
5.720554554
 10
208.6678285256
 20
5.6435964209
 10
208.7786015959
 20
5.5573100294
 10
208.8847105369
 20
5.4593633146
 10
208.9838232839
 20
5.3520883413
 10
209.0771058694
 20
5.2354851095
 10
209.1645582933
 20
5.1072215545
 10
209.2461805556
 20
4.9696297409
 10
209.3208066239
 20
4.8215436365
 10
209.390768563
 20
4.6629632412
 10
209.4525682759
 20
4.4927225227
 10
209.5073717949
 20
4.3084894164
 10
209.5528470553
 20
4.1102639223
 10
209.5901600895
 20
3.8980460403
 10
209.6193108974
 20
3.6718357706
 10
209.6402994792
 20
3.4304670807
 10
209.6519598024
 20
3.1762720353
 10
209.6566239316
 20
2.908084602
 10
209.6566239316
 20
2.908084602
 10
209.6519598024
 20
2.6410632011
 10
209.6402994792
 20
2.388034188
 10
209.6193108974
 20
2.1478315304
 10
209.5913261218
 20
1.922787293
 10
209.5540130876
 20
1.7117354434
 10
209.5085378272
 20
1.5146759816
 10
209.4560663729
 20
1.3304428753
 10
209.39426666
 20
1.1613681891
 10
209.3254707532
 20
1.0039538261
 10
209.2508446848
 20
0.857033754
 10
209.1703884549
 20
0.7194419404
 10
209.082936031
 20
0.5911783854
 10
208.9896534455
 20
0.4734091213
 10
208.8893746661
 20
0.366134148
 10
208.7832657252
 20
0.2681874332
 10
208.6713266226
 20
0.1807350093
 10
208.5547233908
 20
0.1037768763
 10
208.434622062
 20
0.0361470019
 10
208.3110226362
 20
-0.0198225494
 10
208.1850911458
 20
-0.0664638421
 10
208.0556615585
 20
-0.102610844
 10
207.9227338742
 20
-0.128263555
 10
207.7863080929
 20
-0.1445880075
 10
207.6475502471
 20
-0.1492521368
 10
207.6475502471
 20
-0.1492521368
 10
207.5099584335
 20
-0.1445880075
 10
207.3770307492
 20
-0.1294295873
 10
207.2464351295
 20
-0.1037768763
 10
207.1205036392
 20
-0.0687959068
 10
206.9969042134
 20
-0.0244866787
 10
206.8768028846
 20
0.0314828726
 10
206.7601996528
 20
0.0967806824
 10
206.6470945179
 20
0.1714067508
 10
206.5386535123
 20
0.25652711
 10
206.4360426683
 20
0.3509757278
 10
206.3404280182
 20
0.4559186365
 10
206.2506435296
 20
0.571355836
 10
206.1666892027
 20
0.6949552618
 10
206.0885650374
 20
0.8290489784
 10
206.0162710337
 20
0.9736369858
 10
205.9509732238
 20
1.1275532519
 10
205.8926716079
 20
1.2942958734
 10
205.8413661859
 20
1.4773629474
 10
205.7993890224
 20
1.6767544738
 10
205.7644080529
 20
1.8913044204
 10
205.7364232772
 20
2.1210127871
 10
205.7166007278
 20
2.3682116386
 10
205.7049404046
 20
2.6305689103
 10
205.7014423077
 20
2.908084602
  0
LWPOLYLINE
  5
9D
330
1F
100
AcDbEntity
  8
0
  6
Continuous
 62
     7
100
AcDbPolyline
 90
       85
 70
   128
 43
0.0
 10
206.2237262726
 20
2.9104166667
 10
206.226156851
 20
2.677210203
 10
206.2354851095
 20
2.4579961271
 10
206.2494774973
 20
2.2527744391
 10
206.2681340144
 20
2.0638772035
 10
206.2937867254
 20
1.8889723558
 10
206.3241035657
 20
1.7280598958
 10
206.3602505676
 20
1.582305856
 10
206.402227731
 20
1.4517102364
 10
206.4500350561
 20
1.3316089076
 10
206.5025065104
 20
1.219669805
 10
206.559642094
 20
1.1147268964
 10
206.6226078392
 20
1.0179462139
 10
206.691403746
 20
0.9281617254
 10
206.7648637821
 20
0.8453734308
 10
206.8441539797
 20
0.7707473624
 10
206.9281083066
 20
0.703117488
 10
207.105345219
 20
0.5911783854
 10
207.2872462607
 20
0.5118881878
 10
207.4738114316
 20
0.4640808627
 10
207.6650407318
 20
0.4477564103
 10
207.6650407318
 20
0.4477564103
 10
207.8574360644
 20
0.4629148304
 10
208.0440012353
 20
0.5107221554
 10
208.2235702123
 20
0.5876802885
 10
208.3973090278
 20
0.6972873264
 10
208.4800973224
 20
0.7637511685
 10
208.5570554554
 20
0.8372112046
 10
208.6293494591
 20
0.9199994992
 10
208.6969793336
 20
1.0097839877
 10
208.7587790465
 20
1.1065646701
 10
208.8159146301
 20
1.2126736111
 10
208.8672200521
 20
1.325778746
 10
208.9138613448
 20
1.4470461071
 10
208.9138613448
 20
1.4470461071
 10
208.9651667668
 20
1.6032944378
 10
209.0106420272
 20
1.7665389623
 10
209.0479550614
 20
1.9379457131
 10
209.079437934
 20
2.1163486579
 10
209.1027585804
 20
2.3029138288
 10
209.1202490652
 20
2.497641226
 10
209.130743356
 20
2.7005308494
 10
209.134241453
 20
2.9104166667
 10
209.134241453
 20
2.9104166667
 10
209.130743356
 20
3.120302484
 10
209.1225811298
 20
3.3208600427
 10
209.1062566774
 20
3.5109233106
 10
209.0852680956
 20
3.69165832
 10
209.05728332
 20
3.8630650708
 10
209.0246344151
 20
4.0239775307
 10
208.9838232839
 20
4.1755617321
 10
208.9383480235
 20
4.3178176749
 10
208.8870426015
 20
4.4507453592
 10
208.8310730502
 20
4.5731787527
 10
208.7704393697
 20
4.6874499199
 10
208.7051415598
 20
4.7923928285
 10
208.6351796207
 20
4.8880074786
 10
208.55938752
 20
4.9742938702
 10
208.4800973224
 20
5.0512520032
 10
208.3961429955
 20
5.1188818777
 10
208.2200721154
 20
5.2296549479
 10
208.0405031384
 20
5.3101111779
 10
207.8551039997
 20
5.3567524706
 10
207.6650407318
 20
5.3730769231
 10
207.6650407318
 20
5.3730769231
 10
207.4726453993
 20
5.3567524706
 10
207.284914196
 20
5.3101111779
 10
207.1041791867
 20
5.2296549479
 10
206.9281083066
 20
5.1188818777
 10
206.8441539797
 20
5.0524180355
 10
206.7660298144
 20
4.9777919671
 10
206.6925697783
 20
4.8950036725
 10
206.6249399038
 20
4.805219184
 10
206.5619741587
 20
4.7084385016
 10
206.5036725427
 20
4.6034955929
 10
206.4512010884
 20
4.4915564904
 10
206.4033937634
 20
4.3714551616
 10
206.3614165999
 20
4.2408595419
 10
206.325269598
 20
4.0951055021
 10
206.2937867254
 20
3.9353590745
 10
206.2693000467
 20
3.7592881944
 10
206.2494774973
 20
3.5692249265
 10
206.2354851095
 20
3.3651692708
 10
206.226156851
 20
3.1447891627
 10
206.2238247863
 20
2.9104166667
  0
LWPOLYLINE
  5
9E
330
1F
100
AcDbEntity
  8
0
  6
Continuous
 62
     7
100
AcDbPolyline
 90
      184
 70
   128
 43
0.0
 10
301.9700050354
 20
4.4775641026
 10
301.4477564103
 20
4.4775641026
 10
301.4477564103
 20
4.4775641026
 10
301.4932316707
 20
4.6524689503
 10
301.549201222
 20
4.8157134749
 10
301.6133329995
 20
4.9696297409
 10
301.6879590678
 20
5.1130517161
 10
301.7707473624
 20
5.2459794004
 10
301.8640299479
 20
5.3684127938
 10
301.9666407919
 20
5.4815179287
 10
302.0785798945
 20
5.5829627404
 10
302.197515191
 20
5.6739132612
 10
302.322280649
 20
5.7520374265
 10
302.4517102364
 20
5.8185012687
 10
302.5869699853
 20
5.8733047877
 10
302.7280598958
 20
5.9152819511
 10
302.8738139356
 20
5.9455987914
 10
303.0242321047
 20
5.9642553085
 10
303.1804804354
 20
5.9700854701
 10
303.1804804354
 20
5.9700854701
 10
303.4078567374
 20
5.9572591146
 10
303.6270708133
 20
5.9176140158
 10
303.8381226629
 20
5.8523162059
 10
304.0421783186
 20
5.7613656851
 10
304.2310755542
 20
5.6482605502
 10
304.3966521434
 20
5.5164988982
 10
304.5400741186
 20
5.3660807292
 10
304.6613414797
 20
5.1981720753
 10
304.7569561298
 20
5.0186030983
 10
304.8257520366
 20
4.8355360243
 10
304.8665631677
 20
4.6489708534
 10
304.8805555556
 20
4.4577415532
 10
304.8805555556
 20
4.4577415532
 10
304.8700612647
 20
4.2735084468
 10
304.8385783921
 20
4.0997696314
 10
304.7849409054
 20
3.9353590745
 10
304.7103148371
 20
3.7802767762
 10
304.614700187
 20
3.6356887687
 10
304.4980969551
 20
3.5004290198
 10
304.3605051416
 20
3.3756635617
 10
304.2007587139
 20
3.2602263622
 10
304.2007587139
 20
3.2602263622
 10
304.3838257879
 20
3.1657777444
 10
304.5505684095
 20
3.0515065772
 10
304.6998205462
 20
2.9174128606
 10
304.8315821982
 20
2.7634965946
 10
304.8315821982
 20
2.7634965946
 10
304.9132044605
 20
2.6468933627
 10
304.9831663996
 20
2.5256260016
 10
305.0438000801
 20
2.4020265759
 10
305.0927734375
 20
2.2737630208
 10
305.1300864717
 20
2.1431674012
 10
305.156905215
 20
2.0090736846
 10
305.1732296675
 20
1.8703158387
 10
305.1790598291
 20
1.7292259282
 10
305.1790598291
 20
1.7292259282
 10
305.1627353766
 20
1.4855251736
 10
305.1125959869
 20
1.2476545807
 10
305.0298076923
 20
1.014448117
 10
304.9132044605
 20
0.7882378472
 10
304.768616453
 20
0.5771859976
 10
304.6007077991
 20
0.391786859
 10
304.4071464343
 20
0.230874399
 10
304.1902644231
 20
0.0956146501
 10
303.9547258948
 20
-0.0116603232
 10
303.7051949786
 20
-0.0874524239
 10
303.4416716747
 20
-0.1340937166
 10
303.1653220152
 20
-0.1492521368
 10
303.1653220152
 20
-0.1492521368
 10
302.9787568443
 20
-0.1422559428
 10
302.7991878673
 20
-0.1224333934
 10
302.6277811165
 20
-0.0874524239
 10
302.4645365919
 20
-0.0396450988
 10
302.3094542935
 20
0.0209885817
 10
302.1625342214
 20
0.0956146501
 10
302.0226103432
 20
0.1842331063
 10
301.8908486912
 20
0.2868439503
 10
301.7684152978
 20
0.4022811498
 10
301.6576422276
 20
0.5305447049
 10
301.5573634482
 20
0.6716346154
 10
301.468744992
 20
0.8255508814
 10
301.3906208267
 20
0.9911274706
 10
301.3241569845
 20
1.1706964476
 10
301.2681874332
 20
1.3619257479
 10
301.2238782051
 20
1.5671474359
 10
301.2238782051
 20
1.5671474359
 10
301.7462606838
 20
1.5671474359
 10
301.7462606838
 20
1.5671474359
 10
301.7882378472
 20
1.4330537193
 10
301.8337131076
 20
1.3082882612
 10
301.8850185296
 20
1.1928510617
 10
301.9398220486
 20
1.087908153
 10
301.9981236645
 20
0.9922935029
 10
302.062255442
 20
0.9060071114
 10
302.1298853165
 20
0.8290489784
 10
302.2021793202
 20
0.7625851362
 10
302.2021793202
 20
0.7625851362
 10
302.3012920673
 20
0.6891251002
 10
302.406234976
 20
0.6249933226
 10
302.5181740785
 20
0.5701898037
 10
302.6359433427
 20
0.5270466079
 10
302.7607088007
 20
0.4920656384
 10
302.8924704527
 20
0.4675789597
 10
303.0300622663
 20
0.4524205395
 10
303.1746502738
 20
0.4477564103
 10
303.1746502738
 20
0.4477564103
 10
303.3378947983
 20
0.4535865718
 10
303.4929770967
 20
0.4710770566
 10
303.6398971688
 20
0.4990618323
 10
303.7786550147
 20
0.5398729634
 10
303.908084602
 20
0.5911783854
 10
304.0305179955
 20
0.6553101629
 10
304.1436231303
 20
0.7299362313
 10
304.2497320713
 20
0.8162226229
 10
304.3453467214
 20
0.9106712407
 10
304.428135016
 20
1.0086179554
 10
304.4980969551
 20
1.1100627671
 10
304.5552325387
 20
1.2161717081
 10
304.5995417668
 20
1.325778746
 10
304.6310246394
 20
1.4400499132
 10
304.6508471888
 20
1.5578191774
 10
304.6566773504
 20
1.6790865385
 10
304.6566773504
 20
1.6790865385
 10
304.6438509949
 20
1.8411650307
 10
304.6065379607
 20
1.9985793937
 10
304.5435722155
 20
2.1501635951
 10
304.4549537593
 20
2.2959176349
 10
304.3453467214
 20
2.4311773838
 10
304.219415231
 20
2.548946648
 10
304.0748272236
 20
2.648059395
 10
303.9139147636
 20
2.7296816573
 10
303.8241302751
 20
2.7646626269
 10
303.7215194311
 20
2.7961454995
 10
303.6084142962
 20
2.8229642428
 10
303.4824828058
 20
2.8474509215
 10
303.3460570246
 20
2.8684395032
 10
303.1979709201
 20
2.885929988
 10
303.0370584602
 20
2.8999223758
 10
302.8656517094
 20
2.9104166667
 10
302.8656517094
 20
2.9104166667
 10
302.8656517094
 20
3.5074252137
 10
302.8656517094
 20
3.5074252137
 10
303.0813676883
 20
3.5155874399
 10
303.2865893763
 20
3.5424061832
 10
303.4824828058
 20
3.5843833467
 10
303.6678819444
 20
3.6450170272
 10
303.8369566306
 20
3.7184770633
 10
303.9803786058
 20
3.8012653579
 10
304.0993139022
 20
3.8933819111
 10
304.19376252
 20
3.9948267228
 10
304.2660565238
 20
4.1044337607
 10
304.3173619458
 20
4.2175388956
 10
304.3476787861
 20
4.336474192
 10
304.3581730769
 20
4.4600736178
 10
304.3581730769
 20
4.4600736178
 10
304.3535089476
 20
4.5510241386
 10
304.3371844952
 20
4.6396425948
 10
304.3115317842
 20
4.7235969217
 10
304.2753847823
 20
4.8063852163
 10
304.2287434896
 20
4.8845093817
 10
304.171607906
 20
4.9603014824
 10
304.1039780315
 20
5.0325954861
 10
304.0258538662
 20
5.1013913929
 10
303.9407335069
 20
5.1655231704
 10
303.8497829861
 20
5.2203266894
 10
303.7530023037
 20
5.2669679821
 10
303.6503914597
 20
5.3054470486
 10
303.5431164864
 20
5.3345978566
 10
303.4300113515
 20
5.3555864383
 10
303.311076055
 20
5.3684127938
 10
303.1874766293
 20
5.3730769231
 10
303.1874766293
 20
5.3730769231
 10
302.9892511351
 20
5.3602505676
 10
302.8038519965
 20
5.3217715011
 10
302.633611278
 20
5.2588057559
 10
302.4761969151
 20
5.1690212674
 10
302.402736879
 20
5.1130517161
 10
302.3327749399
 20
5.0489199386
 10
302.2651450654
 20
4.9766259348
 10
302.2010132879
 20
4.8938376402
 10
302.1380475427
 20
4.8028871194
 10
302.0797459268
 20
4.7037743723
 10
302.0237763755
 20
4.5953333667
 10
301.9701388889
 20
4.4775641026
  0
LWPOLYLINE
  5
9F
330
1F
100
AcDbEntity
  8
0
  6
Continuous
 62
     7
100
AcDbPolyline
 90
      100
 70
   128
 43
0.0
 10
305.7012557983
 20
2.908084602
 10
305.7049404046
 20
3.1879323584
 10
305.7166007278
 20
3.4514556624
 10
305.7364232772
 20
3.6998205462
 10
305.7632420206
 20
3.9306949452
 10
305.7970569578
 20
4.1452448918
 10
305.8402001536
 20
4.343470386
 10
305.8903395433
 20
4.5253714276
 10
305.9474751269
 20
4.6909480168
 10
306.0116069044
 20
4.8436982505
 10
306.0827348758
 20
4.9871202257
 10
306.1608590411
 20
5.12004791
 10
306.2448133681
 20
5.2448133681
 10
306.3345978566
 20
5.3590845353
 10
306.4302125067
 20
5.4640274439
 10
306.5328233507
 20
5.5584760617
 10
306.6424303886
 20
5.6447624533
 10
306.7567015558
 20
5.720554554
 10
306.87447082
 20
5.7870183961
 10
306.9945721488
 20
5.8429879474
 10
307.1193376068
 20
5.8884632078
 10
307.2464351295
 20
5.9246102097
 10
307.3770307492
 20
5.9502629207
 10
307.5099584335
 20
5.9654213408
 10
307.6475502471
 20
5.9700854701
 10
307.6475502471
 20
5.9700854701
 10
307.7863080929
 20
5.9654213408
 10
307.9227338742
 20
5.9502629207
 10
308.0544955262
 20
5.9246102097
 10
308.1839251135
 20
5.8884632078
 10
308.3098566039
 20
5.8429879474
 10
308.4322899973
 20
5.7870183961
 10
308.5523913261
 20
5.720554554
 10
308.6678285256
 20
5.6435964209
 10
308.7786015959
 20
5.5573100294
 10
308.8847105369
 20
5.4593633146
 10
308.9838232839
 20
5.3520883413
 10
309.0771058694
 20
5.2354851095
 10
309.1645582933
 20
5.1072215545
 10
309.2461805556
 20
4.9696297409
 10
309.3208066239
 20
4.8215436365
 10
309.390768563
 20
4.6629632412
 10
309.4525682759
 20
4.4927225227
 10
309.5073717949
 20
4.3084894164
 10
309.5528470553
 20
4.1102639223
 10
309.5901600895
 20
3.8980460403
 10
309.6193108974
 20
3.6718357706
 10
309.6402994792
 20
3.4304670807
 10
309.6519598024
 20
3.1762720353
 10
309.6566239316
 20
2.908084602
 10
309.6566239316
 20
2.908084602
 10
309.6519598024
 20
2.6410632011
 10
309.6402994792
 20
2.388034188
 10
309.6193108974
 20
2.1478315304
 10
309.5913261218
 20
1.922787293
 10
309.5540130876
 20
1.7117354434
 10
309.5085378272
 20
1.5146759816
 10
309.4560663729
 20
1.3304428753
 10
309.39426666
 20
1.1613681891
 10
309.3254707532
 20
1.0039538261
 10
309.2508446848
 20
0.857033754
 10
309.1703884549
 20
0.7194419404
 10
309.082936031
 20
0.5911783854
 10
308.9896534455
 20
0.4734091213
 10
308.8893746661
 20
0.366134148
 10
308.7832657252
 20
0.2681874332
 10
308.6713266226
 20
0.1807350093
 10
308.5547233908
 20
0.1037768763
 10
308.434622062
 20
0.0361470019
 10
308.3110226362
 20
-0.0198225494
 10
308.1850911458
 20
-0.0664638421
 10
308.0556615585
 20
-0.102610844
 10
307.9227338742
 20
-0.128263555
 10
307.7863080929
 20
-0.1445880075
 10
307.6475502471
 20
-0.1492521368
 10
307.6475502471
 20
-0.1492521368
 10
307.5099584335
 20
-0.1445880075
 10
307.3770307492
 20
-0.1294295873
 10
307.2464351295
 20
-0.1037768763
 10
307.1205036392
 20
-0.0687959068
 10
306.9969042134
 20
-0.0244866787
 10
306.8768028846
 20
0.0314828726
 10
306.7601996528
 20
0.0967806824
 10
306.6470945179
 20
0.1714067508
 10
306.5386535123
 20
0.25652711
 10
306.4360426683
 20
0.3509757278
 10
306.3404280182
 20
0.4559186365
 10
306.2506435296
 20
0.571355836
 10
306.1666892027
 20
0.6949552618
 10
306.0885650374
 20
0.8290489784
 10
306.0162710337
 20
0.9736369858
 10
305.9509732238
 20
1.1275532519
 10
305.8926716079
 20
1.2942958734
 10
305.8413661859
 20
1.4773629474
 10
305.7993890224
 20
1.6767544738
 10
305.7644080529
 20
1.8913044204
 10
305.7364232772
 20
2.1210127871
 10
305.7166007278
 20
2.3682116386
 10
305.7049404046
 20
2.6305689103
 10
305.7014423077
 20
2.908084602
  0
LWPOLYLINE
  5
A0
330
1F
100
AcDbEntity
  8
0
  6
Continuous
 62
     7
100
AcDbPolyline
 90
       85
 70
   128
 43
0.0
 10
306.2236309052
 20
2.9104166667
 10
306.226156851
 20
2.677210203
 10
306.2354851095
 20
2.4579961271
 10
306.2494774973
 20
2.2527744391
 10
306.2681340144
 20
2.0638772035
 10
306.2937867254
 20
1.8889723558
 10
306.3241035657
 20
1.7280598958
 10
306.3602505676
 20
1.582305856
 10
306.402227731
 20
1.4517102364
 10
306.4500350561
 20
1.3316089076
 10
306.5025065104
 20
1.219669805
 10
306.559642094
 20
1.1147268964
 10
306.6226078392
 20
1.0179462139
 10
306.691403746
 20
0.9281617254
 10
306.7648637821
 20
0.8453734308
 10
306.8441539797
 20
0.7707473624
 10
306.9281083066
 20
0.703117488
 10
307.105345219
 20
0.5911783854
 10
307.2872462607
 20
0.5118881878
 10
307.4738114316
 20
0.4640808627
 10
307.6650407318
 20
0.4477564103
 10
307.6650407318
 20
0.4477564103
 10
307.8574360644
 20
0.4629148304
 10
308.0440012353
 20
0.5107221554
 10
308.2235702123
 20
0.5876802885
 10
308.3973090278
 20
0.6972873264
 10
308.4800973224
 20
0.7637511685
 10
308.5570554554
 20
0.8372112046
 10
308.6293494591
 20
0.9199994992
 10
308.6969793336
 20
1.0097839877
 10
308.7587790465
 20
1.1065646701
 10
308.8159146301
 20
1.2126736111
 10
308.8672200521
 20
1.325778746
 10
308.9138613448
 20
1.4470461071
 10
308.9138613448
 20
1.4470461071
 10
308.9651667668
 20
1.6032944378
 10
309.0106420272
 20
1.7665389623
 10
309.0479550614
 20
1.9379457131
 10
309.079437934
 20
2.1163486579
 10
309.1027585804
 20
2.3029138288
 10
309.1202490652
 20
2.497641226
 10
309.130743356
 20
2.7005308494
 10
309.134241453
 20
2.9104166667
 10
309.134241453
 20
2.9104166667
 10
309.130743356
 20
3.120302484
 10
309.1225811298
 20
3.3208600427
 10
309.1062566774
 20
3.5109233106
 10
309.0852680956
 20
3.69165832
 10
309.05728332
 20
3.8630650708
 10
309.0246344151
 20
4.0239775307
 10
308.9838232839
 20
4.1755617321
 10
308.9383480235
 20
4.3178176749
 10
308.8870426015
 20
4.4507453592
 10
308.8310730502
 20
4.5731787527
 10
308.7704393697
 20
4.6874499199
 10
308.7051415598
 20
4.7923928285
 10
308.6351796207
 20
4.8880074786
 10
308.55938752
 20
4.9742938702
 10
308.4800973224
 20
5.0512520032
 10
308.3961429955
 20
5.1188818777
 10
308.2200721154
 20
5.2296549479
 10
308.0405031384
 20
5.3101111779
 10
307.8551039997
 20
5.3567524706
 10
307.6650407318
 20
5.3730769231
 10
307.6650407318
 20
5.3730769231
 10
307.4726453993
 20
5.3567524706
 10
307.284914196
 20
5.3101111779
 10
307.1041791867
 20
5.2296549479
 10
306.9281083066
 20
5.1188818777
 10
306.8441539797
 20
5.0524180355
 10
306.7660298144
 20
4.9777919671
 10
306.6925697783
 20
4.8950036725
 10
306.6249399038
 20
4.805219184
 10
306.5619741587
 20
4.7084385016
 10
306.5036725427
 20
4.6034955929
 10
306.4512010884
 20
4.4915564904
 10
306.4033937634
 20
4.3714551616
 10
306.3614165999
 20
4.2408595419
 10
306.325269598
 20
4.0951055021
 10
306.2937867254
 20
3.9353590745
 10
306.2693000467
 20
3.7592881944
 10
306.2494774973
 20
3.5692249265
 10
306.2354851095
 20
3.3651692708
 10
306.226156851
 20
3.1447891627
 10
306.2238247863
 20
2.9104166667
  0
LWPOLYLINE
  5
A1
330
1F
100
AcDbEntity
  8
0
  6
Continuous
 62
     7
100
AcDbPolyline
 90
       20
 70
   128
 43
0.0
 10
404.4013023376
 20
5.9700854701
 10
404.5074252137
 20
5.9700854701
 10
404.5074252137
 20
5.9700854701
 10
404.5074252137
 20
1.9402777778
 10
404.5074252137
 20
1.9402777778
 10
405.1790598291
 20
1.9402777778
 10
405.1790598291
 20
1.9402777778
 10
405.1790598291
 20
1.3432692308
 10
405.1790598291
 20
1.3432692308
 10
404.5074252137
 20
1.3432692308
 10
404.5074252137
 20
1.3432692308
 10
404.5074252137
 20
0.0
 10
404.5074252137
 20
0.0
 10
403.985042735
 20
0.0
 10
403.985042735
 20
0.0
 10
403.985042735
 20
1.3432692308
 10
403.985042735
 20
1.3432692308
 10
401.2238782051
 20
1.3432692308
 10
401.2238782051
 20
1.3432692308
 10
404.4013162727
 20
5.9700854701
  0
LWPOLYLINE
  5
A2
330
1F
100
AcDbEntity
  8
0
  6
Continuous
 62
     7
100
AcDbPolyline
 90
        6
 70
   128
 43
0.0
 10
403.9850234985
 20
1.9402777778
 10
403.985042735
 20
4.468235844
 10
403.985042735
 20
4.468235844
 10
402.2499866453
 20
1.9402777778
 10
402.2499866453
 20
1.9402777778
 10
403.985042735
 20
1.9402777778
  0
LWPOLYLINE
  5
A3
330
1F
100
AcDbEntity
  8
0
  6
Continuous
 62
     7
100
AcDbPolyline
 90
      100
 70
   128
 43
0.0
 10
405.7013988495
 20
2.908084602
 10
405.7049404046
 20
3.1879323584
 10
405.7166007278
 20
3.4514556624
 10
405.7364232772
 20
3.6998205462
 10
405.7632420206
 20
3.9306949452
 10
405.7970569578
 20
4.1452448918
 10
405.8402001536
 20
4.343470386
 10
405.8903395433
 20
4.5253714276
 10
405.9474751269
 20
4.6909480168
 10
406.0116069044
 20
4.8436982505
 10
406.0827348758
 20
4.9871202257
 10
406.1608590411
 20
5.12004791
 10
406.2448133681
 20
5.2448133681
 10
406.3345978566
 20
5.3590845353
 10
406.4302125067
 20
5.4640274439
 10
406.5328233507
 20
5.5584760617
 10
406.6424303886
 20
5.6447624533
 10
406.7567015558
 20
5.720554554
 10
406.87447082
 20
5.7870183961
 10
406.9945721488
 20
5.8429879474
 10
407.1193376068
 20
5.8884632078
 10
407.2464351295
 20
5.9246102097
 10
407.3770307492
 20
5.9502629207
 10
407.5099584335
 20
5.9654213408
 10
407.6475502471
 20
5.9700854701
 10
407.6475502471
 20
5.9700854701
 10
407.7863080929
 20
5.9654213408
 10
407.9227338742
 20
5.9502629207
 10
408.0544955262
 20
5.9246102097
 10
408.1839251135
 20
5.8884632078
 10
408.3098566039
 20
5.8429879474
 10
408.4322899973
 20
5.7870183961
 10
408.5523913261
 20
5.720554554
 10
408.6678285256
 20
5.6435964209
 10
408.7786015959
 20
5.5573100294
 10
408.8847105369
 20
5.4593633146
 10
408.9838232839
 20
5.3520883413
 10
409.0771058694
 20
5.2354851095
 10
409.1645582933
 20
5.1072215545
 10
409.2461805556
 20
4.9696297409
 10
409.3208066239
 20
4.8215436365
 10
409.390768563
 20
4.6629632412
 10
409.4525682759
 20
4.4927225227
 10
409.5073717949
 20
4.3084894164
 10
409.5528470553
 20
4.1102639223
 10
409.5901600895
 20
3.8980460403
 10
409.6193108974
 20
3.6718357706
 10
409.6402994792
 20
3.4304670807
 10
409.6519598024
 20
3.1762720353
 10
409.6566239316
 20
2.908084602
 10
409.6566239316
 20
2.908084602
 10
409.6519598024
 20
2.6410632011
 10
409.6402994792
 20
2.388034188
 10
409.6193108974
 20
2.1478315304
 10
409.5913261218
 20
1.922787293
 10
409.5540130876
 20
1.7117354434
 10
409.5085378272
 20
1.5146759816
 10
409.4560663729
 20
1.3304428753
 10
409.39426666
 20
1.1613681891
 10
409.3254707532
 20
1.0039538261
 10
409.2508446848
 20
0.857033754
 10
409.1703884549
 20
0.7194419404
 10
409.082936031
 20
0.5911783854
 10
408.9896534455
 20
0.4734091213
 10
408.8893746661
 20
0.366134148
 10
408.7832657252
 20
0.2681874332
 10
408.6713266226
 20
0.1807350093
 10
408.5547233908
 20
0.1037768763
 10
408.434622062
 20
0.0361470019
 10
408.3110226362
 20
-0.0198225494
 10
408.1850911458
 20
-0.0664638421
 10
408.0556615585
 20
-0.102610844
 10
407.9227338742
 20
-0.128263555
 10
407.7863080929
 20
-0.1445880075
 10
407.6475502471
 20
-0.1492521368
 10
407.6475502471
 20
-0.1492521368
 10
407.5099584335
 20
-0.1445880075
 10
407.3770307492
 20
-0.1294295873
 10
407.2464351295
 20
-0.1037768763
 10
407.1205036392
 20
-0.0687959068
 10
406.9969042134
 20
-0.0244866787
 10
406.8768028846
 20
0.0314828726
 10
406.7601996528
 20
0.0967806824
 10
406.6470945179
 20
0.1714067508
 10
406.5386535123
 20
0.25652711
 10
406.4360426683
 20
0.3509757278
 10
406.3404280182
 20
0.4559186365
 10
406.2506435296
 20
0.571355836
 10
406.1666892027
 20
0.6949552618
 10
406.0885650374
 20
0.8290489784
 10
406.0162710337
 20
0.9736369858
 10
405.9509732238
 20
1.1275532519
 10
405.8926716079
 20
1.2942958734
 10
405.8413661859
 20
1.4773629474
 10
405.7993890224
 20
1.6767544738
 10
405.7644080529
 20
1.8913044204
 10
405.7364232772
 20
2.1210127871
 10
405.7166007278
 20
2.3682116386
 10
405.7049404046
 20
2.6305689103
 10
405.7014423077
 20
2.908084602
  0
LWPOLYLINE
  5
A4
330
1F
100
AcDbEntity
  8
0
  6
Continuous
 62
     7
100
AcDbPolyline
 90
       85
 70
   128
 43
0.0
 10
406.2237739563
 20
2.9104166667
 10
406.226156851
 20
2.677210203
 10
406.2354851095
 20
2.4579961271
 10
406.2494774973
 20
2.2527744391
 10
406.2681340144
 20
2.0638772035
 10
406.2937867254
 20
1.8889723558
 10
406.3241035657
 20
1.7280598958
 10
406.3602505676
 20
1.582305856
 10
406.402227731
 20
1.4517102364
 10
406.4500350561
 20
1.3316089076
 10
406.5025065104
 20
1.219669805
 10
406.559642094
 20
1.1147268964
 10
406.6226078392
 20
1.0179462139
 10
406.691403746
 20
0.9281617254
 10
406.7648637821
 20
0.8453734308
 10
406.8441539797
 20
0.7707473624
 10
406.9281083066
 20
0.703117488
 10
407.105345219
 20
0.5911783854
 10
407.2872462607
 20
0.5118881878
 10
407.4738114316
 20
0.4640808627
 10
407.6650407318
 20
0.4477564103
 10
407.6650407318
 20
0.4477564103
 10
407.8574360644
 20
0.4629148304
 10
408.0440012353
 20
0.5107221554
 10
408.2235702123
 20
0.5876802885
 10
408.3973090278
 20
0.6972873264
 10
408.4800973224
 20
0.7637511685
 10
408.5570554554
 20
0.8372112046
 10
408.6293494591
 20
0.9199994992
 10
408.6969793336
 20
1.0097839877
 10
408.7587790465
 20
1.1065646701
 10
408.8159146301
 20
1.2126736111
 10
408.8672200521
 20
1.325778746
 10
408.9138613448
 20
1.4470461071
 10
408.9138613448
 20
1.4470461071
 10
408.9651667668
 20
1.6032944378
 10
409.0106420272
 20
1.7665389623
 10
409.0479550614
 20
1.9379457131
 10
409.079437934
 20
2.1163486579
 10
409.1027585804
 20
2.3029138288
 10
409.1202490652
 20
2.497641226
 10
409.130743356
 20
2.7005308494
 10
409.134241453
 20
2.9104166667
 10
409.134241453
 20
2.9104166667
 10
409.130743356
 20
3.120302484
 10
409.1225811298
 20
3.3208600427
 10
409.1062566774
 20
3.5109233106
 10
409.0852680956
 20
3.69165832
 10
409.05728332
 20
3.8630650708
 10
409.0246344151
 20
4.0239775307
 10
408.9838232839
 20
4.1755617321
 10
408.9383480235
 20
4.3178176749
 10
408.8870426015
 20
4.4507453592
 10
408.8310730502
 20
4.5731787527
 10
408.7704393697
 20
4.6874499199
 10
408.7051415598
 20
4.7923928285
 10
408.6351796207
 20
4.8880074786
 10
408.55938752
 20
4.9742938702
 10
408.4800973224
 20
5.0512520032
 10
408.3961429955
 20
5.1188818777
 10
408.2200721154
 20
5.2296549479
 10
408.0405031384
 20
5.3101111779
 10
407.8551039997
 20
5.3567524706
 10
407.6650407318
 20
5.3730769231
 10
407.6650407318
 20
5.3730769231
 10
407.4726453993
 20
5.3567524706
 10
407.284914196
 20
5.3101111779
 10
407.1041791867
 20
5.2296549479
 10
406.9281083066
 20
5.1188818777
 10
406.8441539797
 20
5.0524180355
 10
406.7660298144
 20
4.9777919671
 10
406.6925697783
 20
4.8950036725
 10
406.6249399038
 20
4.805219184
 10
406.5619741587
 20
4.7084385016
 10
406.5036725427
 20
4.6034955929
 10
406.4512010884
 20
4.4915564904
 10
406.4033937634
 20
4.3714551616
 10
406.3614165999
 20
4.2408595419
 10
406.325269598
 20
4.0951055021
 10
406.2937867254
 20
3.9353590745
 10
406.2693000467
 20
3.7592881944
 10
406.2494774973
 20
3.5692249265
 10
406.2354851095
 20
3.3651692708
 10
406.226156851
 20
3.1447891627
 10
406.2238247863
 20
2.9104166667
  0
LWPOLYLINE
  5
A5
330
1F
100
AcDbEntity
  8
0
  6
Continuous
 62
     7
100
AcDbPolyline
 90
      132
 70
   128
 43
0.0
 10
504.8804283142
 20
5.8208333333
 10
504.8805555556
 20
5.2238247863
 10
504.8805555556
 20
5.2238247863
 10
502.900632679
 20
5.2238247863
 10
502.900632679
 20
5.2238247863
 10
502.5869699853
 20
3.6928243523
 10
502.5869699853
 20
3.6928243523
 10
502.7723691239
 20
3.7417977097
 10
502.948440004
 20
3.7779447115
 10
503.1151826255
 20
3.7989332933
 10
503.2725969885
 20
3.8059294872
 10
503.2725969885
 20
3.8059294872
 10
503.4673243857
 20
3.797767261
 10
503.6538895566
 20
3.7721145499
 10
503.831126469
 20
3.7301373865
 10
504.0002011552
 20
3.6718357706
 10
504.1599475828
 20
3.5972097022
 10
504.3103657519
 20
3.505093149
 10
504.4526216947
 20
3.3966521434
 10
504.5867154113
 20
3.270720653
 10
504.7079827724
 20
3.1319628072
 10
504.8129256811
 20
2.985042735
 10
504.9027101696
 20
2.8276283721
 10
504.9750041733
 20
2.6620517829
 10
505.0321397569
 20
2.4859809028
 10
505.0717848558
 20
2.3005817642
 10
505.0962715345
 20
2.105854367
 10
505.1044337607
 20
1.9017987113
 10
505.1044337607
 20
1.9017987113
 10
505.0997696314
 20
1.7595427684
 10
505.0881093082
 20
1.6196188902
 10
505.0671207265
 20
1.483193109
 10
505.0379699185
 20
1.3490993924
 10
505.0006568843
 20
1.2185037727
 10
504.9551816239
 20
1.09140625
 10
504.900378105
 20
0.9666407919
 10
504.8385783921
 20
0.8442073985
 10
504.7697824853
 20
0.7276041667
 10
504.6939903846
 20
0.6179971287
 10
504.6135341546
 20
0.5153862847
 10
504.5272477631
 20
0.4197716346
 10
504.4339651776
 20
0.3311531784
 10
504.3348524306
 20
0.2495309161
 10
504.2310755542
 20
0.1749048478
 10
504.120302484
 20
0.1072749733
 10
504.0048652845
 20
0.0466412927
 10
503.8847639557
 20
-0.0046641293
 10
503.7611645299
 20
-0.0489733574
 10
503.6329009749
 20
-0.0851203592
 10
503.4999732906
 20
-0.1131051349
 10
503.362381477
 20
-0.1329276843
 10
503.2201255342
 20
-0.1457540398
 10
503.0743714944
 20
-0.1492521368
 10
503.0743714944
 20
-0.1492521368
 10
502.900632679
 20
-0.1422559428
 10
502.7338900574
 20
-0.1201013288
 10
502.5741436298
 20
-0.0851203592
 10
502.4213933961
 20
-0.0349809696
 10
502.2756393563
 20
0.029150808
 10
502.1368815104
 20
0.1084410056
 10
502.0039538261
 20
0.2005575588
 10
501.8791883681
 20
0.3078325321
 10
501.7637511685
 20
0.4267678285
 10
501.6611403245
 20
0.5538653512
 10
501.5701898037
 20
0.6891251002
 10
501.490899606
 20
0.8337131076
 10
501.4244357639
 20
0.985297309
 10
501.3707982772
 20
1.146209769
 10
501.3288211138
 20
1.3152844551
 10
501.2985042735
 20
1.4925213675
 10
501.2985042735
 20
1.4925213675
 10
501.8208867521
 20
1.4925213675
 10
501.8208867521
 20
1.4925213675
 10
501.8628639156
 20
1.3269447783
 10
501.9165014022
 20
1.1788586739
 10
501.9829652444
 20
1.0459309896
 10
502.0610894097
 20
0.9293277577
 10
502.1532059629
 20
0.8267169137
 10
502.2593149038
 20
0.7346003606
 10
502.3794162326
 20
0.651812066
 10
502.5135099493
 20
0.5806840946
 10
502.6557658921
 20
0.5223824786
 10
502.8026859642
 20
0.4815713475
 10
502.951938101
 20
0.4559186365
 10
503.1046883347
 20
0.4477564103
 10
503.1046883347
 20
0.4477564103
 10
503.2539404714
 20
0.4547526042
 10
503.3973624466
 20
0.4745751536
 10
503.5361202925
 20
0.5072240585
 10
503.6690479768
 20
0.5538653512
 10
503.7961454995
 20
0.6121669671
 10
503.9185788929
 20
0.6856270032
 10
504.0351821247
 20
0.7707473624
 10
504.1471212273
 20
0.8698601095
 10
504.248566039
 20
0.9783011151
 10
504.3371844952
 20
1.0937383146
 10
504.4118105636
 20
1.2161717081
 10
504.4736102764
 20
1.3444352631
 10
504.5214176015
 20
1.479695012
 10
504.5552325387
 20
1.6207849225
 10
504.5750550881
 20
1.768871027
 10
504.5820512821
 20
1.9239533253
 10
504.5820512821
 20
1.9239533253
 10
504.5762211205
 20
2.0638772035
 10
504.5587306357
 20
2.1968048878
 10
504.5284137954
 20
2.3227363782
 10
504.4864366319
 20
2.4416716747
 10
504.4327991453
 20
2.5547768096
 10
504.3675013355
 20
2.6608857505
 10
504.2893771701
 20
2.7599984976
 10
504.1995926816
 20
2.8521150507
 10
504.1004799346
 20
2.9360693777
 10
503.992038929
 20
3.0083633814
 10
503.8766017294
 20
3.068997062
 10
503.7530023037
 20
3.120302484
 10
503.6212406517
 20
3.1587815505
 10
503.4813167735
 20
3.1867663261
 10
503.3343967014
 20
3.2030907786
 10
503.1781483707
 20
3.2089209402
 10
503.1781483707
 20
3.2089209402
 10
503.0428886218
 20
3.2042568109
 10
502.8994666466
 20
3.1902644231
 10
502.7502145099
 20
3.1669437767
 10
502.5928001469
 20
3.1342948718
 10
502.4295556223
 20
3.0923177083
 10
502.2581488715
 20
3.0410122863
 10
502.0809119591
 20
2.9803786058
 10
501.8955128205
 20
2.9104166667
 10
501.8955128205
 20
2.9104166667
 10
502.4925213675
 20
5.8208333333
 10
502.4925213675
 20
5.8208333333
 10
504.8805555556
 20
5.8208333333
  0
LWPOLYLINE
  5
A6
330
1F
100
AcDbEntity
  8
0
  6
Continuous
 62
     7
100
AcDbPolyline
 90
      100
 70
   128
 43
0.0
 10
505.7010650635
 20
2.908084602
 10
505.7049404046
 20
3.1879323584
 10
505.7166007278
 20
3.4514556624
 10
505.7364232772
 20
3.6998205462
 10
505.7632420206
 20
3.9306949452
 10
505.7970569578
 20
4.1452448918
 10
505.8402001536
 20
4.343470386
 10
505.8903395433
 20
4.5253714276
 10
505.9474751269
 20
4.6909480168
 10
506.0116069044
 20
4.8436982505
 10
506.0827348758
 20
4.9871202257
 10
506.1608590411
 20
5.12004791
 10
506.2448133681
 20
5.2448133681
 10
506.3345978566
 20
5.3590845353
 10
506.4302125067
 20
5.4640274439
 10
506.5328233507
 20
5.5584760617
 10
506.6424303886
 20
5.6447624533
 10
506.7567015558
 20
5.720554554
 10
506.87447082
 20
5.7870183961
 10
506.9945721488
 20
5.8429879474
 10
507.1193376068
 20
5.8884632078
 10
507.2464351295
 20
5.9246102097
 10
507.3770307492
 20
5.9502629207
 10
507.5099584335
 20
5.9654213408
 10
507.6475502471
 20
5.9700854701
 10
507.6475502471
 20
5.9700854701
 10
507.7863080929
 20
5.9654213408
 10
507.9227338742
 20
5.9502629207
 10
508.0544955262
 20
5.9246102097
 10
508.1839251135
 20
5.8884632078
 10
508.3098566039
 20
5.8429879474
 10
508.4322899973
 20
5.7870183961
 10
508.5523913261
 20
5.720554554
 10
508.6678285256
 20
5.6435964209
 10
508.7786015959
 20
5.5573100294
 10
508.8847105369
 20
5.4593633146
 10
508.9838232839
 20
5.3520883413
 10
509.0771058694
 20
5.2354851095
 10
509.1645582933
 20
5.1072215545
 10
509.2461805556
 20
4.9696297409
 10
509.3208066239
 20
4.8215436365
 10
509.390768563
 20
4.6629632412
 10
509.4525682759
 20
4.4927225227
 10
509.5073717949
 20
4.3084894164
 10
509.5528470553
 20
4.1102639223
 10
509.5901600895
 20
3.8980460403
 10
509.6193108974
 20
3.6718357706
 10
509.6402994792
 20
3.4304670807
 10
509.6519598024
 20
3.1762720353
 10
509.6566239316
 20
2.908084602
 10
509.6566239316
 20
2.908084602
 10
509.6519598024
 20
2.6410632011
 10
509.6402994792
 20
2.388034188
 10
509.6193108974
 20
2.1478315304
 10
509.5913261218
 20
1.922787293
 10
509.5540130876
 20
1.7117354434
 10
509.5085378272
 20
1.5146759816
 10
509.4560663729
 20
1.3304428753
 10
509.39426666
 20
1.1613681891
 10
509.3254707532
 20
1.0039538261
 10
509.2508446848
 20
0.857033754
 10
509.1703884549
 20
0.7194419404
 10
509.082936031
 20
0.5911783854
 10
508.9896534455
 20
0.4734091213
 10
508.8893746661
 20
0.366134148
 10
508.7832657252
 20
0.2681874332
 10
508.6713266226
 20
0.1807350093
 10
508.5547233908
 20
0.1037768763
 10
508.434622062
 20
0.0361470019
 10
508.3110226362
 20
-0.0198225494
 10
508.1850911458
 20
-0.0664638421
 10
508.0556615585
 20
-0.102610844
 10
507.9227338742
 20
-0.128263555
 10
507.7863080929
 20
-0.1445880075
 10
507.6475502471
 20
-0.1492521368
 10
507.6475502471
 20
-0.1492521368
 10
507.5099584335
 20
-0.1445880075
 10
507.3770307492
 20
-0.1294295873
 10
507.2464351295
 20
-0.1037768763
 10
507.1205036392
 20
-0.0687959068
 10
506.9969042134
 20
-0.0244866787
 10
506.8768028846
 20
0.0314828726
 10
506.7601996528
 20
0.0967806824
 10
506.6470945179
 20
0.1714067508
 10
506.5386535123
 20
0.25652711
 10
506.4360426683
 20
0.3509757278
 10
506.3404280182
 20
0.4559186365
 10
506.2506435296
 20
0.571355836
 10
506.1666892027
 20
0.6949552618
 10
506.0885650374
 20
0.8290489784
 10
506.0162710337
 20
0.9736369858
 10
505.9509732238
 20
1.1275532519
 10
505.8926716079
 20
1.2942958734
 10
505.8413661859
 20
1.4773629474
 10
505.7993890224
 20
1.6767544738
 10
505.7644080529
 20
1.8913044204
 10
505.7364232772
 20
2.1210127871
 10
505.7166007278
 20
2.3682116386
 10
505.7049404046
 20
2.6305689103
 10
505.7014423077
 20
2.908084602
  0
LWPOLYLINE
  5
A7
330
1F
100
AcDbEntity
  8
0
  6
Continuous
 62
     7
100
AcDbPolyline
 90
       85
 70
   128
 43
0.0
 10
506.2236785889
 20
2.9104166667
 10
506.226156851
 20
2.677210203
 10
506.2354851095
 20
2.4579961271
 10
506.2494774973
 20
2.2527744391
 10
506.2681340144
 20
2.0638772035
 10
506.2937867254
 20
1.8889723558
 10
506.3241035657
 20
1.7280598958
 10
506.3602505676
 20
1.582305856
 10
506.402227731
 20
1.4517102364
 10
506.4500350561
 20
1.3316089076
 10
506.5025065104
 20
1.219669805
 10
506.559642094
 20
1.1147268964
 10
506.6226078392
 20
1.0179462139
 10
506.691403746
 20
0.9281617254
 10
506.7648637821
 20
0.8453734308
 10
506.8441539797
 20
0.7707473624
 10
506.9281083066
 20
0.703117488
 10
507.105345219
 20
0.5911783854
 10
507.2872462607
 20
0.5118881878
 10
507.4738114316
 20
0.4640808627
 10
507.6650407318
 20
0.4477564103
 10
507.6650407318
 20
0.4477564103
 10
507.8574360644
 20
0.4629148304
 10
508.0440012353
 20
0.5107221554
 10
508.2235702123
 20
0.5876802885
 10
508.3973090278
 20
0.6972873264
 10
508.4800973224
 20
0.7637511685
 10
508.5570554554
 20
0.8372112046
 10
508.6293494591
 20
0.9199994992
 10
508.6969793336
 20
1.0097839877
 10
508.7587790465
 20
1.1065646701
 10
508.8159146301
 20
1.2126736111
 10
508.8672200521
 20
1.325778746
 10
508.9138613448
 20
1.4470461071
 10
508.9138613448
 20
1.4470461071
 10
508.9651667668
 20
1.6032944378
 10
509.0106420272
 20
1.7665389623
 10
509.0479550614
 20
1.9379457131
 10
509.079437934
 20
2.1163486579
 10
509.1027585804
 20
2.3029138288
 10
509.1202490652
 20
2.497641226
 10
509.130743356
 20
2.7005308494
 10
509.134241453
 20
2.9104166667
 10
509.134241453
 20
2.9104166667
 10
509.130743356
 20
3.120302484
 10
509.1225811298
 20
3.3208600427
 10
509.1062566774
 20
3.5109233106
 10
509.0852680956
 20
3.69165832
 10
509.05728332
 20
3.8630650708
 10
509.0246344151
 20
4.0239775307
 10
508.9838232839
 20
4.1755617321
 10
508.9383480235
 20
4.3178176749
 10
508.8870426015
 20
4.4507453592
 10
508.8310730502
 20
4.5731787527
 10
508.7704393697
 20
4.6874499199
 10
508.7051415598
 20
4.7923928285
 10
508.6351796207
 20
4.8880074786
 10
508.55938752
 20
4.9742938702
 10
508.4800973224
 20
5.0512520032
 10
508.3961429955
 20
5.1188818777
 10
508.2200721154
 20
5.2296549479
 10
508.0405031384
 20
5.3101111779
 10
507.8551039997
 20
5.3567524706
 10
507.6650407318
 20
5.3730769231
 10
507.6650407318
 20
5.3730769231
 10
507.4726453993
 20
5.3567524706
 10
507.284914196
 20
5.3101111779
 10
507.1041791867
 20
5.2296549479
 10
506.9281083066
 20
5.1188818777
 10
506.8441539797
 20
5.0524180355
 10
506.7660298144
 20
4.9777919671
 10
506.6925697783
 20
4.8950036725
 10
506.6249399038
 20
4.805219184
 10
506.5619741587
 20
4.7084385016
 10
506.5036725427
 20
4.6034955929
 10
506.4512010884
 20
4.4915564904
 10
506.4033937634
 20
4.3714551616
 10
506.3614165999
 20
4.2408595419
 10
506.325269598
 20
4.0951055021
 10
506.2937867254
 20
3.9353590745
 10
506.2693000467
 20
3.7592881944
 10
506.2494774973
 20
3.5692249265
 10
506.2354851095
 20
3.3651692708
 10
506.226156851
 20
3.1447891627
 10
506.2238247863
 20
2.9104166667
  0
LWPOLYLINE
  5
A8
330
1F
100
AcDbEntity
  8
0
  6
Continuous
 62
     7
100
AcDbPolyline
 90
       65
 70
   128
 43
0.0
 10
603.9099693298
 20
5.9700854701
 10
604.3126978165
 20
5.6540907118
 10
604.3126978165
 20
5.6540907118
 10
602.7747011886
 20
3.3022035256
 10
602.7747011886
 20
3.3022035256
 10
603.0825337206
 20
3.3441806891
 10
603.3775398972
 20
3.3581730769
 10
603.3775398972
 20
3.3581730769
 10
603.5547768096
 20
3.3500108507
 10
603.725017528
 20
3.3266902043
 10
603.8882620526
 20
3.2882111378
 10
604.0445103833
 20
3.2334076189
 10
604.19376252
 20
3.1634456798
 10
604.3371844952
 20
3.0783253205
 10
604.4724442441
 20
2.9768805088
 10
604.6018738315
 20
2.860277277
 10
604.7196430956
 20
2.732013722
 10
604.8222539396
 20
2.596753973
 10
604.9085403312
 20
2.4544980302
 10
604.9785022703
 20
2.3052458934
 10
605.0333057893
 20
2.1478315304
 10
605.0729508881
 20
1.9834209736
 10
605.0962715345
 20
1.8120142228
 10
605.1044337607
 20
1.633611278
 10
605.1044337607
 20
1.633611278
 10
605.0904413729
 20
1.3899105235
 10
605.0461321448
 20
1.1578700921
 10
604.973838141
 20
0.9386560163
 10
604.871227297
 20
0.7299362313
 10
604.742963742
 20
0.5387069311
 10
604.589047476
 20
0.3684662126
 10
604.4118105636
 20
0.2180480435
 10
604.2089209402
 20
0.0886184562
 10
603.9908728966
 20
-0.0151584201
 10
603.7634965946
 20
-0.0897844885
 10
603.5291240986
 20
-0.1340937166
 10
603.285423344
 20
-0.1492521368
 10
603.285423344
 20
-0.1492521368
 10
603.051050848
 20
-0.1352597489
 10
602.8248405783
 20
-0.0921165532
 10
602.6067925347
 20
-0.0198225494
 10
602.3980727497
 20
0.08045623
 10
602.2045113849
 20
0.2075537527
 10
602.0331046341
 20
0.3579719217
 10
601.882686465
 20
0.5317107372
 10
601.7555889423
 20
0.728770199
 10
601.6541441306
 20
0.9421541132
 10
601.5806840946
 20
1.1613681891
 10
601.5375408988
 20
1.3887444912
 10
601.5223824786
 20
1.6231169872
 10
601.5223824786
 20
1.6231169872
 10
601.5317107372
 20
1.8026859642
 10
601.5585294805
 20
1.9880851028
 10
601.6028387086
 20
2.1769823384
 10
601.6646384215
 20
2.3705437033
 10
601.7042835203
 20
2.4708224826
 10
601.7497587807
 20
2.5769314236
 10
601.8033962674
 20
2.6865384615
 10
601.8628639156
 20
2.8019756611
 10
601.9304937901
 20
2.9232430222
 10
602.0039538261
 20
3.0480084802
 10
602.0855760884
 20
3.1786040999
 10
602.1730285123
 20
3.3138638488
 10
602.1730285123
 20
3.3138638488
 10
603.9104166667
 20
5.9700854701
  0
LWPOLYLINE
  5
A9
330
1F
100
AcDbEntity
  8
0
  6
Continuous
 62
     7
100
AcDbPolyline
 90
       68
 70
   128
 43
0.0
 10
603.2676696777
 20
2.7611645299
 10
603.1350051749
 20
2.7553343683
 10
603.0090736846
 20
2.7401759482
 10
602.8889723558
 20
2.7133572049
 10
602.7747011886
 20
2.677210203
 10
602.6674262153
 20
2.6294028779
 10
602.5671474359
 20
2.571101262
 10
602.4726988181
 20
2.5023053552
 10
602.3840803619
 20
2.4230151576
 10
602.3047901643
 20
2.336728766
 10
602.2359942575
 20
2.2446122129
 10
602.1776926416
 20
2.1489975628
 10
602.1298853165
 20
2.0487187834
 10
602.0925722823
 20
1.9437758747
 10
602.065753539
 20
1.8341688368
 10
602.0505951189
 20
1.7210637019
 10
602.0447649573
 20
1.6021284054
 10
602.0447649573
 20
1.6021284054
 10
602.0505951189
 20
1.4843591413
 10
602.0680856036
 20
1.3724200387
 10
602.0972364116
 20
1.2628130008
 10
602.1380475427
 20
1.1590361245
 10
602.1893529647
 20
1.0587573451
 10
602.2534847423
 20
0.9643087273
 10
602.3281108106
 20
0.8721921741
 10
602.4155632345
 20
0.7859057826
 10
602.5111778846
 20
0.7066155849
 10
602.611456664
 20
0.6378196782
 10
602.7163995726
 20
0.5795180622
 10
602.8260066106
 20
0.5328767695
 10
602.9402777778
 20
0.4955637353
 10
603.0603791066
 20
0.468744992
 10
603.1839785323
 20
0.4535865718
 10
603.3134081197
 20
0.4477564103
 10
603.3134081197
 20
0.4477564103
 10
603.442837707
 20
0.4535865718
 10
603.5664371327
 20
0.468744992
 10
603.6865384615
 20
0.4955637353
 10
603.8008096287
 20
0.5328767695
 10
603.9104166667
 20
0.5795180622
 10
604.0153595753
 20
0.6378196782
 10
604.1144723224
 20
0.7066155849
 10
604.2100869725
 20
0.7859057826
 10
604.2975393964
 20
0.8721921741
 10
604.3733314971
 20
0.9643087273
 10
604.4362972423
 20
1.0587573451
 10
604.4887686966
 20
1.1590361245
 10
604.5295798277
 20
1.2628130008
 10
604.5587306357
 20
1.3724200387
 10
604.5762211205
 20
1.4843591413
 10
604.5820512821
 20
1.6021284054
 10
604.5820512821
 20
1.6021284054
 10
604.5762211205
 20
1.7210637019
 10
604.5575646034
 20
1.8341688368
 10
604.5284137954
 20
1.9437758747
 10
604.4864366319
 20
2.0487187834
 10
604.431633113
 20
2.1489975628
 10
604.3651692708
 20
2.2446122129
 10
604.2870451055
 20
2.336728766
 10
604.197260617
 20
2.4230151576
 10
604.0981478699
 20
2.5023053552
 10
603.9943709936
 20
2.571101262
 10
603.885929988
 20
2.6294028779
 10
603.7728248531
 20
2.677210203
 10
603.6538895566
 20
2.7133572049
 10
603.5302901309
 20
2.7401759482
 10
603.4020265759
 20
2.7553343683
 10
603.2679328592
 20
2.7611645299
  0
LWPOLYLINE
  5
AA
330
1F
100
AcDbEntity
  8
0
  6
Continuous
 62
     7
100
AcDbPolyline
 90
      100
 70
   128
 43
0.0
 10
605.700969696
 20
2.908084602
 10
605.7049404046
 20
3.1879323584
 10
605.7166007278
 20
3.4514556624
 10
605.7364232772
 20
3.6998205462
 10
605.7632420206
 20
3.9306949452
 10
605.7970569578
 20
4.1452448918
 10
605.8402001536
 20
4.343470386
 10
605.8903395433
 20
4.5253714276
 10
605.9474751269
 20
4.6909480168
 10
606.0116069044
 20
4.8436982505
 10
606.0827348758
 20
4.9871202257
 10
606.1608590411
 20
5.12004791
 10
606.2448133681
 20
5.2448133681
 10
606.3345978566
 20
5.3590845353
 10
606.4302125067
 20
5.4640274439
 10
606.5328233507
 20
5.5584760617
 10
606.6424303886
 20
5.6447624533
 10
606.7567015558
 20
5.720554554
 10
606.87447082
 20
5.7870183961
 10
606.9945721488
 20
5.8429879474
 10
607.1193376068
 20
5.8884632078
 10
607.2464351295
 20
5.9246102097
 10
607.3770307492
 20
5.9502629207
 10
607.5099584335
 20
5.9654213408
 10
607.6475502471
 20
5.9700854701
 10
607.6475502471
 20
5.9700854701
 10
607.7863080929
 20
5.9654213408
 10
607.9227338742
 20
5.9502629207
 10
608.0544955262
 20
5.9246102097
 10
608.1839251135
 20
5.8884632078
 10
608.3098566039
 20
5.8429879474
 10
608.4322899973
 20
5.7870183961
 10
608.5523913261
 20
5.720554554
 10
608.6678285256
 20
5.6435964209
 10
608.7786015959
 20
5.5573100294
 10
608.8847105369
 20
5.4593633146
 10
608.9838232839
 20
5.3520883413
 10
609.0771058694
 20
5.2354851095
 10
609.1645582933
 20
5.1072215545
 10
609.2461805556
 20
4.9696297409
 10
609.3208066239
 20
4.8215436365
 10
609.390768563
 20
4.6629632412
 10
609.4525682759
 20
4.4927225227
 10
609.5073717949
 20
4.3084894164
 10
609.5528470553
 20
4.1102639223
 10
609.5901600895
 20
3.8980460403
 10
609.6193108974
 20
3.6718357706
 10
609.6402994792
 20
3.4304670807
 10
609.6519598024
 20
3.1762720353
 10
609.6566239316
 20
2.908084602
 10
609.6566239316
 20
2.908084602
 10
609.6519598024
 20
2.6410632011
 10
609.6402994792
 20
2.388034188
 10
609.6193108974
 20
2.1478315304
 10
609.5913261218
 20
1.922787293
 10
609.5540130876
 20
1.7117354434
 10
609.5085378272
 20
1.5146759816
 10
609.4560663729
 20
1.3304428753
 10
609.39426666
 20
1.1613681891
 10
609.3254707532
 20
1.0039538261
 10
609.2508446848
 20
0.857033754
 10
609.1703884549
 20
0.7194419404
 10
609.082936031
 20
0.5911783854
 10
608.9896534455
 20
0.4734091213
 10
608.8893746661
 20
0.366134148
 10
608.7832657252
 20
0.2681874332
 10
608.6713266226
 20
0.1807350093
 10
608.5547233908
 20
0.1037768763
 10
608.434622062
 20
0.0361470019
 10
608.3110226362
 20
-0.0198225494
 10
608.1850911458
 20
-0.0664638421
 10
608.0556615585
 20
-0.102610844
 10
607.9227338742
 20
-0.128263555
 10
607.7863080929
 20
-0.1445880075
 10
607.6475502471
 20
-0.1492521368
 10
607.6475502471
 20
-0.1492521368
 10
607.5099584335
 20
-0.1445880075
 10
607.3770307492
 20
-0.1294295873
 10
607.2464351295
 20
-0.1037768763
 10
607.1205036392
 20
-0.0687959068
 10
606.9969042134
 20
-0.0244866787
 10
606.8768028846
 20
0.0314828726
 10
606.7601996528
 20
0.0967806824
 10
606.6470945179
 20
0.1714067508
 10
606.5386535123
 20
0.25652711
 10
606.4360426683
 20
0.3509757278
 10
606.3404280182
 20
0.4559186365
 10
606.2506435296
 20
0.571355836
 10
606.1666892027
 20
0.6949552618
 10
606.0885650374
 20
0.8290489784
 10
606.0162710337
 20
0.9736369858
 10
605.9509732238
 20
1.1275532519
 10
605.8926716079
 20
1.2942958734
 10
605.8413661859
 20
1.4773629474
 10
605.7993890224
 20
1.6767544738
 10
605.7644080529
 20
1.8913044204
 10
605.7364232772
 20
2.1210127871
 10
605.7166007278
 20
2.3682116386
 10
605.7049404046
 20
2.6305689103
 10
605.7014423077
 20
2.908084602
  0
LWPOLYLINE
  5
AB
330
1F
100
AcDbEntity
  8
0
  6
Continuous
 62
     7
100
AcDbPolyline
 90
       85
 70
   128
 43
0.0
 10
606.2235832214
 20
2.9104166667
 10
606.226156851
 20
2.677210203
 10
606.2354851095
 20
2.4579961271
 10
606.2494774973
 20
2.2527744391
 10
606.2681340144
 20
2.0638772035
 10
606.2937867254
 20
1.8889723558
 10
606.3241035657
 20
1.7280598958
 10
606.3602505676
 20
1.582305856
 10
606.402227731
 20
1.4517102364
 10
606.4500350561
 20
1.3316089076
 10
606.5025065104
 20
1.219669805
 10
606.559642094
 20
1.1147268964
 10
606.6226078392
 20
1.0179462139
 10
606.691403746
 20
0.9281617254
 10
606.7648637821
 20
0.8453734308
 10
606.8441539797
 20
0.7707473624
 10
606.9281083066
 20
0.703117488
 10
607.105345219
 20
0.5911783854
 10
607.2872462607
 20
0.5118881878
 10
607.4738114316
 20
0.4640808627
 10
607.6650407318
 20
0.4477564103
 10
607.6650407318
 20
0.4477564103
 10
607.8574360644
 20
0.4629148304
 10
608.0440012353
 20
0.5107221554
 10
608.2235702123
 20
0.5876802885
 10
608.3973090278
 20
0.6972873264
 10
608.4800973224
 20
0.7637511685
 10
608.5570554554
 20
0.8372112046
 10
608.6293494591
 20
0.9199994992
 10
608.6969793336
 20
1.0097839877
 10
608.7587790465
 20
1.1065646701
 10
608.8159146301
 20
1.2126736111
 10
608.8672200521
 20
1.325778746
 10
608.9138613448
 20
1.4470461071
 10
608.9138613448
 20
1.4470461071
 10
608.9651667668
 20
1.6032944378
 10
609.0106420272
 20
1.7665389623
 10
609.0479550614
 20
1.9379457131
 10
609.079437934
 20
2.1163486579
 10
609.1027585804
 20
2.3029138288
 10
609.1202490652
 20
2.497641226
 10
609.130743356
 20
2.7005308494
 10
609.134241453
 20
2.9104166667
 10
609.134241453
 20
2.9104166667
 10
609.130743356
 20
3.120302484
 10
609.1225811298
 20
3.3208600427
 10
609.1062566774
 20
3.5109233106
 10
609.0852680956
 20
3.69165832
 10
609.05728332
 20
3.8630650708
 10
609.0246344151
 20
4.0239775307
 10
608.9838232839
 20
4.1755617321
 10
608.9383480235
 20
4.3178176749
 10
608.8870426015
 20
4.4507453592
 10
608.8310730502
 20
4.5731787527
 10
608.7704393697
 20
4.6874499199
 10
608.7051415598
 20
4.7923928285
 10
608.6351796207
 20
4.8880074786
 10
608.55938752
 20
4.9742938702
 10
608.4800973224
 20
5.0512520032
 10
608.3961429955
 20
5.1188818777
 10
608.2200721154
 20
5.2296549479
 10
608.0405031384
 20
5.3101111779
 10
607.8551039997
 20
5.3567524706
 10
607.6650407318
 20
5.3730769231
 10
607.6650407318
 20
5.3730769231
 10
607.4726453993
 20
5.3567524706
 10
607.284914196
 20
5.3101111779
 10
607.1041791867
 20
5.2296549479
 10
606.9281083066
 20
5.1188818777
 10
606.8441539797
 20
5.0524180355
 10
606.7660298144
 20
4.9777919671
 10
606.6925697783
 20
4.8950036725
 10
606.6249399038
 20
4.805219184
 10
606.5619741587
 20
4.7084385016
 10
606.5036725427
 20
4.6034955929
 10
606.4512010884
 20
4.4915564904
 10
606.4033937634
 20
4.3714551616
 10
606.3614165999
 20
4.2408595419
 10
606.325269598
 20
4.0951055021
 10
606.2937867254
 20
3.9353590745
 10
606.2693000467
 20
3.7592881944
 10
606.2494774973
 20
3.5692249265
 10
606.2354851095
 20
3.3651692708
 10
606.226156851
 20
3.1447891627
 10
606.2238247863
 20
2.9104166667
  0
LWPOLYLINE
  5
AC
330
1F
100
AcDbEntity
  8
0
  6
Continuous
 62
     7
100
AcDbPolyline
 90
       12
 70
   128
 43
0.0
 10
701.596736908
 20
5.8208333333
 10
705.1790598291
 20
5.8208333333
 10
705.1790598291
 20
5.8208333333
 10
702.1193910256
 20
-0.1492521368
 10
702.1193910256
 20
-0.1492521368
 10
701.6681365184
 20
0.0991127471
 10
701.6681365184
 20
0.0991127471
 10
704.2952073317
 20
5.2238247863
 10
704.2952073317
 20
5.2238247863
 10
701.597008547
 20
5.2238247863
 10
701.597008547
 20
5.2238247863
 10
701.597008547
 20
5.8208333333
  0
LWPOLYLINE
  5
AD
330
1F
100
AcDbEntity
  8
0
  6
Continuous
 62
     7
100
AcDbPolyline
 90
      100
 70
   128
 43
0.0
 10
705.7013511658
 20
2.908084602
 10
705.7049404046
 20
3.1879323584
 10
705.7166007278
 20
3.4514556624
 10
705.7364232772
 20
3.6998205462
 10
705.7632420206
 20
3.9306949452
 10
705.7970569578
 20
4.1452448918
 10
705.8402001536
 20
4.343470386
 10
705.8903395433
 20
4.5253714276
 10
705.9474751269
 20
4.6909480168
 10
706.0116069044
 20
4.8436982505
 10
706.0827348758
 20
4.9871202257
 10
706.1608590411
 20
5.12004791
 10
706.2448133681
 20
5.2448133681
 10
706.3345978566
 20
5.3590845353
 10
706.4302125067
 20
5.4640274439
 10
706.5328233507
 20
5.5584760617
 10
706.6424303886
 20
5.6447624533
 10
706.7567015558
 20
5.720554554
 10
706.87447082
 20
5.7870183961
 10
706.9945721488
 20
5.8429879474
 10
707.1193376068
 20
5.8884632078
 10
707.2464351295
 20
5.9246102097
 10
707.3770307492
 20
5.9502629207
 10
707.5099584335
 20
5.9654213408
 10
707.6475502471
 20
5.9700854701
 10
707.6475502471
 20
5.9700854701
 10
707.7863080929
 20
5.9654213408
 10
707.9227338742
 20
5.9502629207
 10
708.0544955262
 20
5.9246102097
 10
708.1839251135
 20
5.8884632078
 10
708.3098566039
 20
5.8429879474
 10
708.4322899973
 20
5.7870183961
 10
708.5523913261
 20
5.720554554
 10
708.6678285256
 20
5.6435964209
 10
708.7786015959
 20
5.5573100294
 10
708.8847105369
 20
5.4593633146
 10
708.9838232839
 20
5.3520883413
 10
709.0771058694
 20
5.2354851095
 10
709.1645582933
 20
5.1072215545
 10
709.2461805556
 20
4.9696297409
 10
709.3208066239
 20
4.8215436365
 10
709.390768563
 20
4.6629632412
 10
709.4525682759
 20
4.4927225227
 10
709.5073717949
 20
4.3084894164
 10
709.5528470553
 20
4.1102639223
 10
709.5901600895
 20
3.8980460403
 10
709.6193108974
 20
3.6718357706
 10
709.6402994792
 20
3.4304670807
 10
709.6519598024
 20
3.1762720353
 10
709.6566239316
 20
2.908084602
 10
709.6566239316
 20
2.908084602
 10
709.6519598024
 20
2.6410632011
 10
709.6402994792
 20
2.388034188
 10
709.6193108974
 20
2.1478315304
 10
709.5913261218
 20
1.922787293
 10
709.5540130876
 20
1.7117354434
 10
709.5085378272
 20
1.5146759816
 10
709.4560663729
 20
1.3304428753
 10
709.39426666
 20
1.1613681891
 10
709.3254707532
 20
1.0039538261
 10
709.2508446848
 20
0.857033754
 10
709.1703884549
 20
0.7194419404
 10
709.082936031
 20
0.5911783854
 10
708.9896534455
 20
0.4734091213
 10
708.8893746661
 20
0.366134148
 10
708.7832657252
 20
0.2681874332
 10
708.6713266226
 20
0.1807350093
 10
708.5547233908
 20
0.1037768763
 10
708.434622062
 20
0.0361470019
 10
708.3110226362
 20
-0.0198225494
 10
708.1850911458
 20
-0.0664638421
 10
708.0556615585
 20
-0.102610844
 10
707.9227338742
 20
-0.128263555
 10
707.7863080929
 20
-0.1445880075
 10
707.6475502471
 20
-0.1492521368
 10
707.6475502471
 20
-0.1492521368
 10
707.5099584335
 20
-0.1445880075
 10
707.3770307492
 20
-0.1294295873
 10
707.2464351295
 20
-0.1037768763
 10
707.1205036392
 20
-0.0687959068
 10
706.9969042134
 20
-0.0244866787
 10
706.8768028846
 20
0.0314828726
 10
706.7601996528
 20
0.0967806824
 10
706.6470945179
 20
0.1714067508
 10
706.5386535123
 20
0.25652711
 10
706.4360426683
 20
0.3509757278
 10
706.3404280182
 20
0.4559186365
 10
706.2506435296
 20
0.571355836
 10
706.1666892027
 20
0.6949552618
 10
706.0885650374
 20
0.8290489784
 10
706.0162710337
 20
0.9736369858
 10
705.9509732238
 20
1.1275532519
 10
705.8926716079
 20
1.2942958734
 10
705.8413661859
 20
1.4773629474
 10
705.7993890224
 20
1.6767544738
 10
705.7644080529
 20
1.8913044204
 10
705.7364232772
 20
2.1210127871
 10
705.7166007278
 20
2.3682116386
 10
705.7049404046
 20
2.6305689103
 10
705.7014423077
 20
2.908084602
  0
LWPOLYLINE
  5
AE
330
1F
100
AcDbEntity
  8
0
  6
Continuous
 62
     7
100
AcDbPolyline
 90
       85
 70
   128
 43
0.0
 10
706.223487854
 20
2.9104166667
 10
706.226156851
 20
2.677210203
 10
706.2354851095
 20
2.4579961271
 10
706.2494774973
 20
2.2527744391
 10
706.2681340144
 20
2.0638772035
 10
706.2937867254
 20
1.8889723558
 10
706.3241035657
 20
1.7280598958
 10
706.3602505676
 20
1.582305856
 10
706.402227731
 20
1.4517102364
 10
706.4500350561
 20
1.3316089076
 10
706.5025065104
 20
1.219669805
 10
706.559642094
 20
1.1147268964
 10
706.6226078392
 20
1.0179462139
 10
706.691403746
 20
0.9281617254
 10
706.7648637821
 20
0.8453734308
 10
706.8441539797
 20
0.7707473624
 10
706.9281083066
 20
0.703117488
 10
707.105345219
 20
0.5911783854
 10
707.2872462607
 20
0.5118881878
 10
707.4738114316
 20
0.4640808627
 10
707.6650407318
 20
0.4477564103
 10
707.6650407318
 20
0.4477564103
 10
707.8574360644
 20
0.4629148304
 10
708.0440012353
 20
0.5107221554
 10
708.2235702123
 20
0.5876802885
 10
708.3973090278
 20
0.6972873264
 10
708.4800973224
 20
0.7637511685
 10
708.5570554554
 20
0.8372112046
 10
708.6293494591
 20
0.9199994992
 10
708.6969793336
 20
1.0097839877
 10
708.7587790465
 20
1.1065646701
 10
708.8159146301
 20
1.2126736111
 10
708.8672200521
 20
1.325778746
 10
708.9138613448
 20
1.4470461071
 10
708.9138613448
 20
1.4470461071
 10
708.9651667668
 20
1.6032944378
 10
709.0106420272
 20
1.7665389623
 10
709.0479550614
 20
1.9379457131
 10
709.079437934
 20
2.1163486579
 10
709.1027585804
 20
2.3029138288
 10
709.1202490652
 20
2.497641226
 10
709.130743356
 20
2.7005308494
 10
709.134241453
 20
2.9104166667
 10
709.134241453
 20
2.9104166667
 10
709.130743356
 20
3.120302484
 10
709.1225811298
 20
3.3208600427
 10
709.1062566774
 20
3.5109233106
 10
709.0852680956
 20
3.69165832
 10
709.05728332
 20
3.8630650708
 10
709.0246344151
 20
4.0239775307
 10
708.9838232839
 20
4.1755617321
 10
708.9383480235
 20
4.3178176749
 10
708.8870426015
 20
4.4507453592
 10
708.8310730502
 20
4.5731787527
 10
708.7704393697
 20
4.6874499199
 10
708.7051415598
 20
4.7923928285
 10
708.6351796207
 20
4.8880074786
 10
708.55938752
 20
4.9742938702
 10
708.4800973224
 20
5.0512520032
 10
708.3961429955
 20
5.1188818777
 10
708.2200721154
 20
5.2296549479
 10
708.0405031384
 20
5.3101111779
 10
707.8551039997
 20
5.3567524706
 10
707.6650407318
 20
5.3730769231
 10
707.6650407318
 20
5.3730769231
 10
707.4726453993
 20
5.3567524706
 10
707.284914196
 20
5.3101111779
 10
707.1041791867
 20
5.2296549479
 10
706.9281083066
 20
5.1188818777
 10
706.8441539797
 20
5.0524180355
 10
706.7660298144
 20
4.9777919671
 10
706.6925697783
 20
4.8950036725
 10
706.6249399038
 20
4.805219184
 10
706.5619741587
 20
4.7084385016
 10
706.5036725427
 20
4.6034955929
 10
706.4512010884
 20
4.4915564904
 10
706.4033937634
 20
4.3714551616
 10
706.3614165999
 20
4.2408595419
 10
706.325269598
 20
4.0951055021
 10
706.2937867254
 20
3.9353590745
 10
706.2693000467
 20
3.7592881944
 10
706.2494774973
 20
3.5692249265
 10
706.2354851095
 20
3.3651692708
 10
706.226156851
 20
3.1447891627
 10
706.2238247863
 20
2.9104166667
  0
LWPOLYLINE
  5
AF
330
1F
100
AcDbEntity
  8
0
  6
Continuous
 62
     7
100
AcDbPolyline
 90
      113
 70
   128
 43
0.0
 10
804.0537834167
 20
3.2427358774
 10
804.1960945847
 20
3.1669437767
 10
804.3278562366
 20
3.0888196114
 10
804.4491235978
 20
3.0071973491
 10
804.5610627003
 20
2.9244090545
 10
804.6636735443
 20
2.8381226629
 10
804.7557900975
 20
2.7483381744
 10
804.8374123598
 20
2.6573876536
 10
804.9097063635
 20
2.5629390358
 10
804.9726721087
 20
2.4661583534
 10
805.0274756277
 20
2.365879574
 10
805.0741169204
 20
2.2621026976
 10
805.1114299546
 20
2.1559937567
 10
805.1417467949
 20
2.0452206864
 10
805.1627353766
 20
1.9321155515
 10
805.1743956998
 20
1.8155123197
 10
805.1790598291
 20
1.6954109909
 10
805.1790598291
 20
1.6954109909
 10
805.1720636351
 20
1.5275023371
 10
805.1510750534
 20
1.3642578125
 10
805.1172601162
 20
1.2056774172
 10
805.0694527911
 20
1.0529271835
 10
805.0064870459
 20
0.9036750467
 10
804.9306949452
 20
0.7614191039
 10
804.842076489
 20
0.622661258
 10
804.7382996127
 20
0.4897335737
 10
804.7382996127
 20
0.4897335737
 10
804.5960436699
 20
0.340481437
 10
804.4397953392
 20
0.2098858173
 10
804.2683885884
 20
0.1002787794
 10
804.0818234175
 20
0.0104942909
 10
803.8812658587
 20
-0.0594676482
 10
803.6667159121
 20
-0.1096070379
 10
803.4370075454
 20
-0.1387578459
 10
803.1933067909
 20
-0.1492521368
 10
803.1933067909
 20
-0.1492521368
 10
802.9589342949
 20
-0.1399238782
 10
802.7385541867
 20
-0.1142711672
 10
802.5321664663
 20
-0.0699619391
 10
802.3421031985
 20
-0.0093282585
 10
802.1648662861
 20
0.0699619391
 10
802.0039538261
 20
0.1667426215
 10
801.857033754
 20
0.2798477564
 10
801.7241060697
 20
0.4116094084
 10
801.6063368056
 20
0.5538653512
 10
801.5048919939
 20
0.699619391
 10
801.4197716346
 20
0.8488715278
 10
801.3486436632
 20
1.0016217615
 10
801.2938401442
 20
1.1578700921
 10
801.2553610777
 20
1.3176165198
 10
801.2320404314
 20
1.4808610443
 10
801.2238782051
 20
1.6476036659
 10
801.2238782051
 20
1.6476036659
 10
801.2285423344
 20
1.7700370593
 10
801.2413686899
 20
1.8889723558
 10
801.2623572716
 20
2.0044095553
 10
801.2915080796
 20
2.1175146902
 10
801.3299871461
 20
2.2271217281
 10
801.3766284388
 20
2.3332306691
 10
801.4314319578
 20
2.4370075454
 10
801.494397703
 20
2.5372863248
 10
801.567857739
 20
2.6352330395
 10
801.6506460337
 20
2.7296816573
 10
801.7450946514
 20
2.8217982105
 10
801.8500375601
 20
2.911582699
 10
801.9643087273
 20
2.9990351229
 10
802.0902402177
 20
3.0829894498
 10
802.2254999666
 20
3.1646117121
 10
802.3724200387
 20
3.2427358774
 10
802.3724200387
 20
3.2427358774
 10
802.1730285123
 20
3.3581730769
 10
802.0004557292
 20
3.4876026643
 10
801.8547016894
 20
3.6286925748
 10
801.7346003606
 20
3.7837748731
 10
801.6413177751
 20
3.94818543
 10
801.5760199653
 20
4.1184261485
 10
801.5352088341
 20
4.2944970286
 10
801.5223824786
 20
4.4763980702
 10
801.5223824786
 20
4.4763980702
 10
801.5363748665
 20
4.6617972089
 10
801.5783520299
 20
4.8448642829
 10
801.6494800013
 20
5.0267653245
 10
801.7474267161
 20
5.2051682692
 10
801.8710261418
 20
5.3742429554
 10
802.0156141493
 20
5.5234950921
 10
802.1811907385
 20
5.6540907118
 10
802.3689219418
 20
5.7660298144
 10
802.5718115652
 20
5.8558143029
 10
802.7828634148
 20
5.9187800481
 10
803.0009114583
 20
5.9572591146
 10
803.2282877604
 20
5.9700854701
 10
803.2282877604
 20
5.9700854701
 10
803.4498339009
 20
5.9572591146
 10
803.6620517829
 20
5.9187800481
 10
803.8661074386
 20
5.8534822382
 10
804.0620008681
 20
5.7636977497
 10
804.2439019097
 20
5.6517586472
 10
804.4036483373
 20
5.5199969952
 10
804.5435722155
 20
5.3707448584
 10
804.662507512
 20
5.2028362046
 10
804.7581221621
 20
5.0244332599
 10
804.8257520366
 20
4.8402001536
 10
804.8665631677
 20
4.6524689503
 10
804.8805555556
 20
4.4600736178
 10
804.8805555556
 20
4.4600736178
 10
804.8677292001
 20
4.2711763822
 10
804.8292501335
 20
4.0927734375
 10
804.7639523237
 20
3.9248647837
 10
804.6741678352
 20
3.7674504207
 10
804.5575646034
 20
3.6205303486
 10
804.4164746928
 20
3.4852705996
 10
804.2474000067
 20
3.3581730769
 10
804.0538386418
 20
3.2427358774
  0
LWPOLYLINE
  5
B0
330
1F
100
AcDbEntity
  8
0
  6
Continuous
 62
     7
100
AcDbPolyline
 90
       64
 70
   128
 43
0.0
 10
803.1988143921
 20
5.3730769231
 10
803.076703559
 20
5.3684127938
 10
802.9601003272
 20
5.3567524706
 10
802.8493272569
 20
5.3357638889
 10
802.743218316
 20
5.3066130809
 10
802.6417735043
 20
5.2681340144
 10
802.5473248865
 20
5.222658754
 10
802.457540398
 20
5.167855235
 10
802.3724200387
 20
5.1048894899
 10
802.2954619057
 20
5.0360935831
 10
802.2289980636
 20
4.9649656116
 10
802.1730285123
 20
4.8903395433
 10
802.1263872196
 20
4.8122153779
 10
802.09140625
 20
4.7305931157
 10
802.065753539
 20
4.6466387887
 10
802.0494290865
 20
4.5591863649
 10
802.0447649573
 20
4.468235844
 10
802.0447649573
 20
4.468235844
 10
802.0505951189
 20
4.3772853232
 10
802.0669195713
 20
4.2898328993
 10
802.0937383146
 20
4.2035465077
 10
802.1333834135
 20
4.1195921808
 10
802.1823567708
 20
4.0379699185
 10
802.2429904514
 20
3.9575136886
 10
802.3141184228
 20
3.8805555556
 10
802.3969067174
 20
3.8047634549
 10
802.4866912059
 20
3.7348015158
 10
802.5811398237
 20
3.6741678352
 10
802.6779205061
 20
3.6240284455
 10
802.7793653178
 20
3.5820512821
 10
802.8843082265
 20
3.5494023771
 10
802.9927492321
 20
3.5260817308
 10
803.1046883347
 20
3.5120893429
 10
803.2201255342
 20
3.5074252137
 10
803.2201255342
 20
3.5074252137
 10
803.3682116386
 20
3.5155874399
 10
803.5127996461
 20
3.5412401509
 10
803.6527235243
 20
3.5832173144
 10
803.7891493056
 20
3.6415189303
 10
803.9162468283
 20
3.7149789663
 10
804.0281859308
 20
3.8012653579
 10
804.1249666132
 20
3.8992120726
 10
804.2077549079
 20
4.0099851429
 10
804.2730527177
 20
4.1277544071
 10
804.3208600427
 20
4.2443576389
 10
804.3488448184
 20
4.362126903
 10
804.3581730769
 20
4.4798961672
 10
804.3581730769
 20
4.4798961672
 10
804.3535089476
 20
4.5626844618
 10
804.3395165598
 20
4.6431406918
 10
804.3161959135
 20
4.7212648571
 10
804.2835470085
 20
4.7993890224
 10
804.2415698451
 20
4.8751811231
 10
804.1914304554
 20
4.9486411592
 10
804.1307967748
 20
5.0209351629
 10
804.0608348357
 20
5.0920631343
 10
803.9827106704
 20
5.1573609442
 10
803.8964242788
 20
5.2144965278
 10
803.8008096287
 20
5.2634698851
 10
803.6970327524
 20
5.303114984
 10
803.5850936498
 20
5.3334318243
 10
803.464992321
 20
5.3555864383
 10
803.336728766
 20
5.3684127938
 10
803.1991369525
 20
5.3730769231
  0
LWPOLYLINE
  5
B1
330
1F
100
AcDbEntity
  8
0
  6
Continuous
 62
     7
100
AcDbPolyline
 90
       64
 70
   128
 43
0.0
 10
803.2326698303
 20
2.9104166667
 10
803.0778695913
 20
2.9045865051
 10
802.9297834869
 20
2.885929988
 10
802.7875275441
 20
2.85677918
 10
802.6522677951
 20
2.8148020166
 10
802.5228382078
 20
2.7599984976
 10
802.3992387821
 20
2.6935346554
 10
802.2826355502
 20
2.6154104901
 10
802.1730285123
 20
2.5256260016
 10
802.0727497329
 20
2.4276792869
 10
801.9864633413
 20
2.3262344752
 10
801.9130033053
 20
2.2201255342
 10
801.8535356571
 20
2.1105184963
 10
801.805728332
 20
1.9962473291
 10
801.7730794271
 20
1.8784780649
 10
801.7532568777
 20
1.7560446715
 10
801.7462606838
 20
1.6301131811
 10
801.7462606838
 20
1.6301131811
 10
801.7579210069
 20
1.4738648504
 10
801.7917359442
 20
1.3234466814
 10
801.8488715278
 20
1.1753605769
 10
801.9281617254
 20
1.0331046341
 10
802.0284405048
 20
0.9001769498
 10
802.1473758013
 20
0.7847397503
 10
802.2838015825
 20
0.6832949386
 10
802.4388838809
 20
0.5993406116
 10
802.6102906317
 20
0.5328767695
 10
802.7933577057
 20
0.4862354768
 10
802.9904171675
 20
0.4570846688
 10
803.1991369525
 20
0.4477564103
 10
803.1991369525
 20
0.4477564103
 10
803.362381477
 20
0.4535865718
 10
803.5162977431
 20
0.4710770566
 10
803.6620517829
 20
0.5002278646
 10
803.7984775641
 20
0.5410389957
 10
803.9267411191
 20
0.5923444177
 10
804.0468424479
 20
0.6564761952
 10
804.1587815505
 20
0.7311022636
 10
804.2613923945
 20
0.8185546875
 10
804.3535089476
 20
0.9130033053
 10
804.4339651776
 20
1.0121160524
 10
804.5027610844
 20
1.1147268964
 10
804.5575646034
 20
1.2208358373
 10
804.6007077991
 20
1.3304428753
 10
804.6321906717
 20
1.4447140425
 10
804.6508471888
 20
1.5624833066
 10
804.6566773504
 20
1.6849167001
 10
804.6566773504
 20
1.6849167001
 10
804.6496811565
 20
1.8038519965
 10
804.6310246394
 20
1.9181231637
 10
804.5983757345
 20
2.0300622663
 10
804.5529004741
 20
2.1385032719
 10
804.4934328259
 20
2.2434461806
 10
804.4223048544
 20
2.3448909923
 10
804.3371844952
 20
2.442837707
 10
804.2392377804
 20
2.5372863248
 10
804.1319628072
 20
2.6247387487
 10
804.0200237046
 20
2.7005308494
 10
803.9022544404
 20
2.7646626269
 10
803.7786550147
 20
2.8171340812
 10
803.6503914597
 20
2.8579452123
 10
803.5162977431
 20
2.8870960203
 10
803.3775398972
 20
2.9045865051
 10
803.2329518897
 20
2.9104166667
  0
LWPOLYLINE
  5
B2
330
1F
100
AcDbEntity
  8
0
  6
Continuous
 62
     7
100
AcDbPolyline
 90
      100
 70
   128
 43
0.0
 10
805.7012557983
 20
2.908084602
 10
805.7049404046
 20
3.1879323584
 10
805.7166007278
 20
3.4514556624
 10
805.7364232772
 20
3.6998205462
 10
805.7632420206
 20
3.9306949452
 10
805.7970569578
 20
4.1452448918
 10
805.8402001536
 20
4.343470386
 10
805.8903395433
 20
4.5253714276
 10
805.9474751269
 20
4.6909480168
 10
806.0116069044
 20
4.8436982505
 10
806.0827348758
 20
4.9871202257
 10
806.1608590411
 20
5.12004791
 10
806.2448133681
 20
5.2448133681
 10
806.3345978566
 20
5.3590845353
 10
806.4302125067
 20
5.4640274439
 10
806.5328233507
 20
5.5584760617
 10
806.6424303886
 20
5.6447624533
 10
806.7567015558
 20
5.720554554
 10
806.87447082
 20
5.7870183961
 10
806.9945721488
 20
5.8429879474
 10
807.1193376068
 20
5.8884632078
 10
807.2464351295
 20
5.9246102097
 10
807.3770307492
 20
5.9502629207
 10
807.5099584335
 20
5.9654213408
 10
807.6475502471
 20
5.9700854701
 10
807.6475502471
 20
5.9700854701
 10
807.7863080929
 20
5.9654213408
 10
807.9227338742
 20
5.9502629207
 10
808.0544955262
 20
5.9246102097
 10
808.1839251135
 20
5.8884632078
 10
808.3098566039
 20
5.8429879474
 10
808.4322899973
 20
5.7870183961
 10
808.5523913261
 20
5.720554554
 10
808.6678285256
 20
5.6435964209
 10
808.7786015959
 20
5.5573100294
 10
808.8847105369
 20
5.4593633146
 10
808.9838232839
 20
5.3520883413
 10
809.0771058694
 20
5.2354851095
 10
809.1645582933
 20
5.1072215545
 10
809.2461805556
 20
4.9696297409
 10
809.3208066239
 20
4.8215436365
 10
809.390768563
 20
4.6629632412
 10
809.4525682759
 20
4.4927225227
 10
809.5073717949
 20
4.3084894164
 10
809.5528470553
 20
4.1102639223
 10
809.5901600895
 20
3.8980460403
 10
809.6193108974
 20
3.6718357706
 10
809.6402994792
 20
3.4304670807
 10
809.6519598024
 20
3.1762720353
 10
809.6566239316
 20
2.908084602
 10
809.6566239316
 20
2.908084602
 10
809.6519598024
 20
2.6410632011
 10
809.6402994792
 20
2.388034188
 10
809.6193108974
 20
2.1478315304
 10
809.5913261218
 20
1.922787293
 10
809.5540130876
 20
1.7117354434
 10
809.5085378272
 20
1.5146759816
 10
809.4560663729
 20
1.3304428753
 10
809.39426666
 20
1.1613681891
 10
809.3254707532
 20
1.0039538261
 10
809.2508446848
 20
0.857033754
 10
809.1703884549
 20
0.7194419404
 10
809.082936031
 20
0.5911783854
 10
808.9896534455
 20
0.4734091213
 10
808.8893746661
 20
0.366134148
 10
808.7832657252
 20
0.2681874332
 10
808.6713266226
 20
0.1807350093
 10
808.5547233908
 20
0.1037768763
 10
808.434622062
 20
0.0361470019
 10
808.3110226362
 20
-0.0198225494
 10
808.1850911458
 20
-0.0664638421
 10
808.0556615585
 20
-0.102610844
 10
807.9227338742
 20
-0.128263555
 10
807.7863080929
 20
-0.1445880075
 10
807.6475502471
 20
-0.1492521368
 10
807.6475502471
 20
-0.1492521368
 10
807.5099584335
 20
-0.1445880075
 10
807.3770307492
 20
-0.1294295873
 10
807.2464351295
 20
-0.1037768763
 10
807.1205036392
 20
-0.0687959068
 10
806.9969042134
 20
-0.0244866787
 10
806.8768028846
 20
0.0314828726
 10
806.7601996528
 20
0.0967806824
 10
806.6470945179
 20
0.1714067508
 10
806.5386535123
 20
0.25652711
 10
806.4360426683
 20
0.3509757278
 10
806.3404280182
 20
0.4559186365
 10
806.2506435296
 20
0.571355836
 10
806.1666892027
 20
0.6949552618
 10
806.0885650374
 20
0.8290489784
 10
806.0162710337
 20
0.9736369858
 10
805.9509732238
 20
1.1275532519
 10
805.8926716079
 20
1.2942958734
 10
805.8413661859
 20
1.4773629474
 10
805.7993890224
 20
1.6767544738
 10
805.7644080529
 20
1.8913044204
 10
805.7364232772
 20
2.1210127871
 10
805.7166007278
 20
2.3682116386
 10
805.7049404046
 20
2.6305689103
 10
805.7014423077
 20
2.908084602
  0
LWPOLYLINE
  5
B3
330
1F
100
AcDbEntity
  8
0
  6
Continuous
 62
     7
100
AcDbPolyline
 90
       85
 70
   128
 43
0.0
 10
806.2233924866
 20
2.9104166667
 10
806.226156851
 20
2.677210203
 10
806.2354851095
 20
2.4579961271
 10
806.2494774973
 20
2.2527744391
 10
806.2681340144
 20
2.0638772035
 10
806.2937867254
 20
1.8889723558
 10
806.3241035657
 20
1.7280598958
 10
806.3602505676
 20
1.582305856
 10
806.402227731
 20
1.4517102364
 10
806.4500350561
 20
1.3316089076
 10
806.5025065104
 20
1.219669805
 10
806.559642094
 20
1.1147268964
 10
806.6226078392
 20
1.0179462139
 10
806.691403746
 20
0.9281617254
 10
806.7648637821
 20
0.8453734308
 10
806.8441539797
 20
0.7707473624
 10
806.9281083066
 20
0.703117488
 10
807.105345219
 20
0.5911783854
 10
807.2872462607
 20
0.5118881878
 10
807.4738114316
 20
0.4640808627
 10
807.6650407318
 20
0.4477564103
 10
807.6650407318
 20
0.4477564103
 10
807.8574360644
 20
0.4629148304
 10
808.0440012353
 20
0.5107221554
 10
808.2235702123
 20
0.5876802885
 10
808.3973090278
 20
0.6972873264
 10
808.4800973224
 20
0.7637511685
 10
808.5570554554
 20
0.8372112046
 10
808.6293494591
 20
0.9199994992
 10
808.6969793336
 20
1.0097839877
 10
808.7587790465
 20
1.1065646701
 10
808.8159146301
 20
1.2126736111
 10
808.8672200521
 20
1.325778746
 10
808.9138613448
 20
1.4470461071
 10
808.9138613448
 20
1.4470461071
 10
808.9651667668
 20
1.6032944378
 10
809.0106420272
 20
1.7665389623
 10
809.0479550614
 20
1.9379457131
 10
809.079437934
 20
2.1163486579
 10
809.1027585804
 20
2.3029138288
 10
809.1202490652
 20
2.497641226
 10
809.130743356
 20
2.7005308494
 10
809.134241453
 20
2.9104166667
 10
809.134241453
 20
2.9104166667
 10
809.130743356
 20
3.120302484
 10
809.1225811298
 20
3.3208600427
 10
809.1062566774
 20
3.5109233106
 10
809.0852680956
 20
3.69165832
 10
809.05728332
 20
3.8630650708
 10
809.0246344151
 20
4.0239775307
 10
808.9838232839
 20
4.1755617321
 10
808.9383480235
 20
4.3178176749
 10
808.8870426015
 20
4.4507453592
 10
808.8310730502
 20
4.5731787527
 10
808.7704393697
 20
4.6874499199
 10
808.7051415598
 20
4.7923928285
 10
808.6351796207
 20
4.8880074786
 10
808.55938752
 20
4.9742938702
 10
808.4800973224
 20
5.0512520032
 10
808.3961429955
 20
5.1188818777
 10
808.2200721154
 20
5.2296549479
 10
808.0405031384
 20
5.3101111779
 10
807.8551039997
 20
5.3567524706
 10
807.6650407318
 20
5.3730769231
 10
807.6650407318
 20
5.3730769231
 10
807.4726453993
 20
5.3567524706
 10
807.284914196
 20
5.3101111779
 10
807.1041791867
 20
5.2296549479
 10
806.9281083066
 20
5.1188818777
 10
806.8441539797
 20
5.0524180355
 10
806.7660298144
 20
4.9777919671
 10
806.6925697783
 20
4.8950036725
 10
806.6249399038
 20
4.805219184
 10
806.5619741587
 20
4.7084385016
 10
806.5036725427
 20
4.6034955929
 10
806.4512010884
 20
4.4915564904
 10
806.4033937634
 20
4.3714551616
 10
806.3614165999
 20
4.2408595419
 10
806.325269598
 20
4.0951055021
 10
806.2937867254
 20
3.9353590745
 10
806.2693000467
 20
3.7592881944
 10
806.2494774973
 20
3.5692249265
 10
806.2354851095
 20
3.3651692708
 10
806.226156851
 20
3.1447891627
 10
806.2238247863
 20
2.9104166667
  0
LWPOLYLINE
  5
B4
330
1F
100
AcDbEntity
  8
0
  6
Continuous
 62
     7
100
AcDbPolyline
 90
       65
 70
   128
 43
0.0
 10
902.4920463562
 20
-0.1492521368
 10
902.0750817975
 20
0.1410899105
 10
902.0750817975
 20
0.1410899105
 10
903.6935346554
 20
2.5069694845
 10
903.6935346554
 20
2.5069694845
 10
903.3833700588
 20
2.4743205796
 10
903.0813676883
 20
2.4626602564
 10
903.0813676883
 20
2.4626602564
 10
902.8983006143
 20
2.4708224826
 10
902.7233957666
 20
2.494143129
 10
902.5543210804
 20
2.5326221955
 10
902.3934086205
 20
2.5874257145
 10
902.2383263221
 20
2.6573876536
 10
902.09140625
 20
2.7425080128
 10
901.9503163395
 20
2.8439528245
 10
901.8173886552
 20
2.9605560564
 10
901.6961212941
 20
3.0888196114
 10
901.5900123531
 20
3.2240793603
 10
901.5013938969
 20
3.3663353032
 10
901.4279338608
 20
3.5167534722
 10
901.3719643096
 20
3.6730018029
 10
901.3311531784
 20
3.8374123598
 10
901.3066664997
 20
4.0088191106
 10
901.2985042735
 20
4.1872220553
 10
901.2985042735
 20
4.1872220553
 10
901.3136626936
 20
4.4309228098
 10
901.3579719217
 20
4.6617972089
 10
901.4325979901
 20
4.8810112847
 10
901.5363748665
 20
5.0873990051
 10
901.6681365184
 20
5.2786283053
 10
901.8243848491
 20
5.4488690238
 10
902.0062858908
 20
5.5992871928
 10
902.2126736111
 20
5.7298828125
 10
902.4353857839
 20
5.8348257212
 10
902.666260183
 20
5.9106178218
 10
902.9052968082
 20
5.9549270499
 10
903.1513296274
 20
5.9700854701
 10
903.1513296274
 20
5.9700854701
 10
903.3926983173
 20
5.9549270499
 10
903.6247387487
 20
5.9117838542
 10
903.8474509215
 20
5.8383238181
 10
904.0608348357
 20
5.7357129741
 10
904.2590603299
 20
5.6062833868
 10
904.4339651776
 20
5.4546991854
 10
904.5867154113
 20
5.2786283053
 10
904.717311031
 20
5.0792367788
 10
904.8210879073
 20
4.8658528646
 10
904.8957139757
 20
4.6443067241
 10
904.9400232038
 20
4.416930422
 10
904.9551816239
 20
4.1813918937
 10
904.9551816239
 20
4.1813918937
 10
904.9458533654
 20
3.9983248197
 10
904.9190346221
 20
3.8117596488
 10
904.8723933293
 20
3.6193643162
 10
904.8082615518
 20
3.4234708868
 10
904.768616453
 20
3.3220260751
 10
904.7208091279
 20
3.2159171341
 10
904.666005609
 20
3.1039780315
 10
904.6042058961
 20
2.988540832
 10
904.5354099893
 20
2.8661074386
 10
904.4596178886
 20
2.7401759482
 10
904.3756635617
 20
2.6084142962
 10
904.2847130409
 20
2.471988515
 10
904.2847130409
 20
2.471988515
 10
902.4925213675
 20
-0.1492521368
  0
LWPOLYLINE
  5
B5
330
1F
100
AcDbEntity
  8
0
  6
Continuous
 62
     7
100
AcDbPolyline
 90
       68
 70
   128
 43
0.0
 10
903.1777381897
 20
3.0596688034
 10
903.3169062166
 20
3.065498965
 10
903.4475018363
 20
3.0806573851
 10
903.5722672943
 20
3.1074761285
 10
903.6888705262
 20
3.1447891627
 10
903.7996435964
 20
3.1914304554
 10
903.9034204728
 20
3.2497320713
 10
903.9990351229
 20
3.3185279781
 10
904.0888196114
 20
3.3978181757
 10
904.1692758413
 20
3.4852705996
 10
904.2392377804
 20
3.5762211205
 10
904.2987054287
 20
3.6718357706
 10
904.3465127537
 20
3.7721145499
 10
904.3849918202
 20
3.8770574586
 10
904.4118105636
 20
3.9854984642
 10
904.4269689837
 20
4.0986035991
 10
904.4327991453
 20
4.2163728632
 10
904.4327991453
 20
4.2163728632
 10
904.4269689837
 20
4.3341421274
 10
904.4094784989
 20
4.4472472623
 10
904.3791616587
 20
4.5556882679
 10
904.3371844952
 20
4.6606311765
 10
904.2835470085
 20
4.7597439236
 10
904.2182491987
 20
4.8553585737
 10
904.1401250334
 20
4.9474751269
 10
904.0503405449
 20
5.0337615184
 10
903.9523938301
 20
5.1130517161
 10
903.8497829861
 20
5.1818476229
 10
903.7413419805
 20
5.2401492388
 10
903.6282368456
 20
5.2879565638
 10
903.5104675815
 20
5.325269598
 10
903.3868681557
 20
5.3520883413
 10
903.2586046007
 20
5.3672467615
 10
903.1245108841
 20
5.3730769231
 10
903.1245108841
 20
5.3730769231
 10
902.9915831998
 20
5.3672467615
 10
902.8644856771
 20
5.3520883413
 10
902.7420522837
 20
5.325269598
 10
902.6242830195
 20
5.2879565638
 10
902.5111778846
 20
5.2401492388
 10
902.402736879
 20
5.1818476229
 10
902.300126035
 20
5.1130517161
 10
902.2021793202
 20
5.0337615184
 10
902.1123948317
 20
4.9474751269
 10
902.0354366987
 20
4.8553585737
 10
901.9701388889
 20
4.7597439236
 10
901.9165014022
 20
4.6606311765
 10
901.8745242388
 20
4.5556882679
 10
901.8442073985
 20
4.4472472623
 10
901.8267169137
 20
4.3341421274
 10
901.8208867521
 20
4.2163728632
 10
901.8208867521
 20
4.2163728632
 10
901.8267169137
 20
4.0986035991
 10
901.8453734308
 20
3.9854984642
 10
901.8768563034
 20
3.8770574586
 10
901.9199994992
 20
3.7721145499
 10
901.9759690505
 20
3.6718357706
 10
902.0447649573
 20
3.5762211205
 10
902.1252211872
 20
3.4852705996
 10
902.2185037727
 20
3.3978181757
 10
902.3199485844
 20
3.3185279781
 10
902.4272235577
 20
3.2497320713
 10
902.5403286926
 20
3.1914304554
 10
902.6569319244
 20
3.1447891627
 10
902.7793653178
 20
3.1074761285
 10
902.9076288729
 20
3.0806573851
 10
903.0405565572
 20
3.065498965
 10
903.1781483707
 20
3.0596688034
  0
LWPOLYLINE
  5
B6
330
1F
100
AcDbEntity
  8
0
  6
Continuous
 62
     7
100
AcDbPolyline
 90
      100
 70
   128
 43
0.0
 10
905.7011604309
 20
2.908084602
 10
905.7049404046
 20
3.1879323584
 10
905.7166007278
 20
3.4514556624
 10
905.7364232772
 20
3.6998205462
 10
905.7632420206
 20
3.9306949452
 10
905.7970569578
 20
4.1452448918
 10
905.8402001536
 20
4.343470386
 10
905.8903395433
 20
4.5253714276
 10
905.9474751269
 20
4.6909480168
 10
906.0116069044
 20
4.8436982505
 10
906.0827348758
 20
4.9871202257
 10
906.1608590411
 20
5.12004791
 10
906.2448133681
 20
5.2448133681
 10
906.3345978566
 20
5.3590845353
 10
906.4302125067
 20
5.4640274439
 10
906.5328233507
 20
5.5584760617
 10
906.6424303886
 20
5.6447624533
 10
906.7567015558
 20
5.720554554
 10
906.87447082
 20
5.7870183961
 10
906.9945721488
 20
5.8429879474
 10
907.1193376068
 20
5.8884632078
 10
907.2464351295
 20
5.9246102097
 10
907.3770307492
 20
5.9502629207
 10
907.5099584335
 20
5.9654213408
 10
907.6475502471
 20
5.9700854701
 10
907.6475502471
 20
5.9700854701
 10
907.7863080929
 20
5.9654213408
 10
907.9227338742
 20
5.9502629207
 10
908.0544955262
 20
5.9246102097
 10
908.1839251135
 20
5.8884632078
 10
908.3098566039
 20
5.8429879474
 10
908.4322899973
 20
5.7870183961
 10
908.5523913261
 20
5.720554554
 10
908.6678285256
 20
5.6435964209
 10
908.7786015959
 20
5.5573100294
 10
908.8847105369
 20
5.4593633146
 10
908.9838232839
 20
5.3520883413
 10
909.0771058694
 20
5.2354851095
 10
909.1645582933
 20
5.1072215545
 10
909.2461805556
 20
4.9696297409
 10
909.3208066239
 20
4.8215436365
 10
909.390768563
 20
4.6629632412
 10
909.4525682759
 20
4.4927225227
 10
909.5073717949
 20
4.3084894164
 10
909.5528470553
 20
4.1102639223
 10
909.5901600895
 20
3.8980460403
 10
909.6193108974
 20
3.6718357706
 10
909.6402994792
 20
3.4304670807
 10
909.6519598024
 20
3.1762720353
 10
909.6566239316
 20
2.908084602
 10
909.6566239316
 20
2.908084602
 10
909.6519598024
 20
2.6410632011
 10
909.6402994792
 20
2.388034188
 10
909.6193108974
 20
2.1478315304
 10
909.5913261218
 20
1.922787293
 10
909.5540130876
 20
1.7117354434
 10
909.5085378272
 20
1.5146759816
 10
909.4560663729
 20
1.3304428753
 10
909.39426666
 20
1.1613681891
 10
909.3254707532
 20
1.0039538261
 10
909.2508446848
 20
0.857033754
 10
909.1703884549
 20
0.7194419404
 10
909.082936031
 20
0.5911783854
 10
908.9896534455
 20
0.4734091213
 10
908.8893746661
 20
0.366134148
 10
908.7832657252
 20
0.2681874332
 10
908.6713266226
 20
0.1807350093
 10
908.5547233908
 20
0.1037768763
 10
908.434622062
 20
0.0361470019
 10
908.3110226362
 20
-0.0198225494
 10
908.1850911458
 20
-0.0664638421
 10
908.0556615585
 20
-0.102610844
 10
907.9227338742
 20
-0.128263555
 10
907.7863080929
 20
-0.1445880075
 10
907.6475502471
 20
-0.1492521368
 10
907.6475502471
 20
-0.1492521368
 10
907.5099584335
 20
-0.1445880075
 10
907.3770307492
 20
-0.1294295873
 10
907.2464351295
 20
-0.1037768763
 10
907.1205036392
 20
-0.0687959068
 10
906.9969042134
 20
-0.0244866787
 10
906.8768028846
 20
0.0314828726
 10
906.7601996528
 20
0.0967806824
 10
906.6470945179
 20
0.1714067508
 10
906.5386535123
 20
0.25652711
 10
906.4360426683
 20
0.3509757278
 10
906.3404280182
 20
0.4559186365
 10
906.2506435296
 20
0.571355836
 10
906.1666892027
 20
0.6949552618
 10
906.0885650374
 20
0.8290489784
 10
906.0162710337
 20
0.9736369858
 10
905.9509732238
 20
1.1275532519
 10
905.8926716079
 20
1.2942958734
 10
905.8413661859
 20
1.4773629474
 10
905.7993890224
 20
1.6767544738
 10
905.7644080529
 20
1.8913044204
 10
905.7364232772
 20
2.1210127871
 10
905.7166007278
 20
2.3682116386
 10
905.7049404046
 20
2.6305689103
 10
905.7014423077
 20
2.908084602
  0
LWPOLYLINE
  5
B7
330
1F
100
AcDbEntity
  8
0
  6
Continuous
 62
     7
100
AcDbPolyline
 90
       85
 70
   128
 43
0.0
 10
906.2237739563
 20
2.9104166667
 10
906.226156851
 20
2.677210203
 10
906.2354851095
 20
2.4579961271
 10
906.2494774973
 20
2.2527744391
 10
906.2681340144
 20
2.0638772035
 10
906.2937867254
 20
1.8889723558
 10
906.3241035657
 20
1.7280598958
 10
906.3602505676
 20
1.582305856
 10
906.402227731
 20
1.4517102364
 10
906.4500350561
 20
1.3316089076
 10
906.5025065104
 20
1.219669805
 10
906.559642094
 20
1.1147268964
 10
906.6226078392
 20
1.0179462139
 10
906.691403746
 20
0.9281617254
 10
906.7648637821
 20
0.8453734308
 10
906.8441539797
 20
0.7707473624
 10
906.9281083066
 20
0.703117488
 10
907.105345219
 20
0.5911783854
 10
907.2872462607
 20
0.5118881878
 10
907.4738114316
 20
0.4640808627
 10
907.6650407318
 20
0.4477564103
 10
907.6650407318
 20
0.4477564103
 10
907.8574360644
 20
0.4629148304
 10
908.0440012353
 20
0.5107221554
 10
908.2235702123
 20
0.5876802885
 10
908.3973090278
 20
0.6972873264
 10
908.4800973224
 20
0.7637511685
 10
908.5570554554
 20
0.8372112046
 10
908.6293494591
 20
0.9199994992
 10
908.6969793336
 20
1.0097839877
 10
908.7587790465
 20
1.1065646701
 10
908.8159146301
 20
1.2126736111
 10
908.8672200521
 20
1.325778746
 10
908.9138613448
 20
1.4470461071
 10
908.9138613448
 20
1.4470461071
 10
908.9651667668
 20
1.6032944378
 10
909.0106420272
 20
1.7665389623
 10
909.0479550614
 20
1.9379457131
 10
909.079437934
 20
2.1163486579
 10
909.1027585804
 20
2.3029138288
 10
909.1202490652
 20
2.497641226
 10
909.130743356
 20
2.7005308494
 10
909.134241453
 20
2.9104166667
 10
909.134241453
 20
2.9104166667
 10
909.130743356
 20
3.120302484
 10
909.1225811298
 20
3.3208600427
 10
909.1062566774
 20
3.5109233106
 10
909.0852680956
 20
3.69165832
 10
909.05728332
 20
3.8630650708
 10
909.0246344151
 20
4.0239775307
 10
908.9838232839
 20
4.1755617321
 10
908.9383480235
 20
4.3178176749
 10
908.8870426015
 20
4.4507453592
 10
908.8310730502
 20
4.5731787527
 10
908.7704393697
 20
4.6874499199
 10
908.7051415598
 20
4.7923928285
 10
908.6351796207
 20
4.8880074786
 10
908.55938752
 20
4.9742938702
 10
908.4800973224
 20
5.0512520032
 10
908.3961429955
 20
5.1188818777
 10
908.2200721154
 20
5.2296549479
 10
908.0405031384
 20
5.3101111779
 10
907.8551039997
 20
5.3567524706
 10
907.6650407318
 20
5.3730769231
 10
907.6650407318
 20
5.3730769231
 10
907.4726453993
 20
5.3567524706
 10
907.284914196
 20
5.3101111779
 10
907.1041791867
 20
5.2296549479
 10
906.9281083066
 20
5.1188818777
 10
906.8441539797
 20
5.0524180355
 10
906.7660298144
 20
4.9777919671
 10
906.6925697783
 20
4.8950036725
 10
906.6249399038
 20
4.805219184
 10
906.5619741587
 20
4.7084385016
 10
906.5036725427
 20
4.6034955929
 10
906.4512010884
 20
4.4915564904
 10
906.4033937634
 20
4.3714551616
 10
906.3614165999
 20
4.2408595419
 10
906.325269598
 20
4.0951055021
 10
906.2937867254
 20
3.9353590745
 10
906.2693000467
 20
3.7592881944
 10
906.2494774973
 20
3.5692249265
 10
906.2354851095
 20
3.3651692708
 10
906.226156851
 20
3.1447891627
 10
906.2238247863
 20
2.9104166667
  0
MTEXT
  5
B9
330
1F
100
AcDbEntity
  8
0
  6
Continuous
 62
     7
100
AcDbMText
 10
0.0
 20
-1.1688185284
 30
0.0
 40
4.83362
 41
0.0
 71
     1
 72
     1
  1
Produit d'ducation SOLIDWORKS  A titre ducatif uniquement.
  7
SLDTEXTSTYLE0
 73
     1
 44
1.0
  0
ENDSEC
  0
SECTION
  2
OBJECTS
  0
DICTIONARY
  5
C
330
0
100
AcDbDictionary
281
     1
  3
ACAD_GROUP
350
D
  3
ACAD_LAYOUT
350
1A
  3
ACAD_MLINESTYLE
350
17
  3
ACAD_PLOTSETTINGS
350
19
  3
ACAD_PLOTSTYLENAME
350
E
  3
ACAD_SCALELIST
350
47
  3
DWGPROPS
350
BA
  0
DICTIONARY
  5
D
102
{ACAD_REACTORS
330
C
102
}
330
C
100
AcDbDictionary
281
     1
  0
DICTIONARY
  5
1A
102
{ACAD_REACTORS
330
C
102
}
330
C
100
AcDbDictionary
281
     1
  3
Layout1
350
1E
  3
Layout2
350
26
  3
Model
350
22
  0
DICTIONARY
  5
17
102
{ACAD_REACTORS
330
C
102
}
330
C
100
AcDbDictionary
281
     1
  3
Standard
350
18
  0
DICTIONARY
  5
19
102
{ACAD_REACTORS
330
C
102
}
330
C
100
AcDbDictionary
281
     1
  0
ACDBDICTIONARYWDFLT
  5
E
102
{ACAD_REACTORS
330
C
102
}
330
C
100
AcDbDictionary
281
     1
  3
Normal
350
F
100
AcDbDictionaryWithDefault
340
F
  0
DICTIONARY
  5
47
102
{ACAD_REACTORS
330
C
102
}
330
C
100
AcDbDictionary
281
     1
  3
A0
350
48
  3
A1
350
49
  3
A2
350
4A
  3
A3
350
4B
  3
A4
350
4C
  3
A5
350
4D
  3
A6
350
4E
  3
A7
350
4F
  3
A8
350
50
  3
A9
350
51
  3
B0
350
52
  3
B1
350
53
  3
B2
350
54
  3
B3
350
55
  3
B4
350
56
  3
B5
350
57
  3
B6
350
58
  0
XRECORD
  5
BA
102
{ACAD_REACTORS
330
C
102
}
330
C
100
AcDbXrecord
280
     1
  1
DWGPROPS COOKIE
  2

  3

  4

  6

  7

  8
ILAB
  9

300
=
301
=
302
=
303
=
304
=
305
=
306
=
307
=
308
=
309
=
 40
0.0
 41
2460241.538955637
 42
2460241.539285868
  1

 90
        0
  0
LAYOUT
  5
1E
102
{ACAD_REACTORS
330
1A
102
}
330
1A
100
AcDbPlotSettings
  1

  2
none_device
  4

  6

 40
0.0
 41
0.0
 42
0.0
 43
0.0
 44
0.0
 45
0.0
 46
0.0
 47
0.0
 48
0.0
 49
0.0
140
0.0
141
0.0
142
1.0
143
1.0
 70
   688
 72
     1
 73
     0
 74
     5
  7

 75
    16
147
1.0
148
0.0
149
0.0
100
AcDbLayout
  1
Layout1
 70
     1
 71
     1
 10
0.0
 20
0.0
 11
420.0
 21
297.0
 12
0.0
 22
0.0
 32
0.0
 14
1.0000000000E+20
 24
1.0000000000E+20
 34
1.0000000000E+20
 15
-1.0000000000E+20
 25
-1.0000000000E+20
 35
-1.0000000000E+20
146
0.0
 13
0.0
 23
0.0
 33
0.0
 16
1.0
 26
0.0
 36
0.0
 17
0.0
 27
1.0
 37
0.0
 76
     0
330
1B
  0
LAYOUT
  5
26
102
{ACAD_REACTORS
330
1A
102
}
330
1A
100
AcDbPlotSettings
  1

  2
none_device
  4

  6

 40
0.0
 41
0.0
 42
0.0
 43
0.0
 44
0.0
 45
0.0
 46
0.0
 47
0.0
 48
0.0
 49
0.0
140
0.0
141
0.0
142
1.0
143
1.0
 70
   688
 72
     1
 73
     0
 74
     5
  7

 75
    16
147
1.0
148
0.0
149
0.0
100
AcDbLayout
  1
Layout2
 70
     1
 71
     2
 10
0.0
 20
0.0
 11
0.0
 21
0.0
 12
0.0
 22
0.0
 32
0.0
 14
0.0
 24
0.0
 34
0.0
 15
0.0
 25
0.0
 35
0.0
146
0.0
 13
0.0
 23
0.0
 33
0.0
 16
1.0
 26
0.0
 36
0.0
 17
0.0
 27
1.0
 37
0.0
 76
     0
330
23
  0
LAYOUT
  5
22
102
{ACAD_REACTORS
330
1A
102
}
330
1A
100
AcDbPlotSettings
  1

  2
none_device
  4
ANSI_A_(11.00_x_8.50_Inches)
  6

 40
6.35
 41
19.05
 42
6.35000508
 43
19.05000254
 44
279.4
 45
215.9
 46
-4.95300254
 47
88.0525895589
 48
0.0
 49
0.0
140
0.0
141
0.0
142
0.0114631579
143
1.0
 70
  1696
 72
     0
 73
     0
 74
     0
  7

 75
     0
147
0.0179189148
148
-1300.4909072572
149
0.0
100
AcDbLayout
  1
Model
 70
     1
 71
     0
 10
0.0
 20
0.0
 11
420.0
 21
297.0
 12
0.0
 22
0.0
 32
0.0
 14
0.0
 24
-0.1492521368
 34
0.0
 15
950.0
 25
5.9700854701
 35
0.0
146
0.0
 13
0.0
 23
0.0
 33
0.0
 16
1.0
 26
0.0
 36
0.0
 17
0.0
 27
1.0
 37
0.0
 76
     0
330
1F
331
29
  0
MLINESTYLE
  5
18
102
{ACAD_REACTORS
330
17
102
}
330
17
100
AcDbMlineStyle
  2
Standard
 70
     0
  3

 62
   256
 51
90.0
 52
90.0
 71
     2
 49
0.5
 62
   256
  6
BYLAYER
 49
-0.5
 62
   256
  6
BYLAYER
  0
ACDBPLACEHOLDER
  5
F
102
{ACAD_REACTORS
330
E
102
}
330
E
  0
SCALE
  5
48
102
{ACAD_REACTORS
330
47
102
}
330
47
100
AcDbScale
 70
     0
300
1:1
140
1.0
141
1.0
290
     1
  0
SCALE
  5
49
102
{ACAD_REACTORS
330
47
102
}
330
47
100
AcDbScale
 70
     0
300
1:2
140
1.0
141
2.0
290
     0
  0
SCALE
  5
4A
102
{ACAD_REACTORS
330
47
102
}
330
47
100
AcDbScale
 70
     0
300
1:4
140
1.0
141
4.0
290
     0
  0
SCALE
  5
4B
102
{ACAD_REACTORS
330
47
102
}
330
47
100
AcDbScale
 70
     0
300
1:5
140
1.0
141
5.0
290
     0
  0
SCALE
  5
4C
102
{ACAD_REACTORS
330
47
102
}
330
47
100
AcDbScale
 70
     0
300
1:8
140
1.0
141
8.0
290
     0
  0
SCALE
  5
4D
102
{ACAD_REACTORS
330
47
102
}
330
47
100
AcDbScale
 70
     0
300
1:10
140
1.0
141
10.0
290
     0
  0
SCALE
  5
4E
102
{ACAD_REACTORS
330
47
102
}
330
47
100
AcDbScale
 70
     0
300
1:16
140
1.0
141
16.0
290
     0
  0
SCALE
  5
4F
102
{ACAD_REACTORS
330
47
102
}
330
47
100
AcDbScale
 70
     0
300
1:20
140
1.0
141
20.0
290
     0
  0
SCALE
  5
50
102
{ACAD_REACTORS
330
47
102
}
330
47
100
AcDbScale
 70
     0
300
1:30
140
1.0
141
30.0
290
     0
  0
SCALE
  5
51
102
{ACAD_REACTORS
330
47
102
}
330
47
100
AcDbScale
 70
     0
300
1:40
140
1.0
141
40.0
290
     0
  0
SCALE
  5
52
102
{ACAD_REACTORS
330
47
102
}
330
47
100
AcDbScale
 70
     0
300
1:50
140
1.0
141
50.0
290
     0
  0
SCALE
  5
53
102
{ACAD_REACTORS
330
47
102
}
330
47
100
AcDbScale
 70
     0
300
1:100
140
1.0
141
100.0
290
     0
  0
SCALE
  5
54
102
{ACAD_REACTORS
330
47
102
}
330
47
100
AcDbScale
 70
     0
300
2:1
140
2.0
141
1.0
290
     0
  0
SCALE
  5
55
102
{ACAD_REACTORS
330
47
102
}
330
47
100
AcDbScale
 70
     0
300
4:1
140
4.0
141
1.0
290
     0
  0
SCALE
  5
56
102
{ACAD_REACTORS
330
47
102
}
330
47
100
AcDbScale
 70
     0
300
8:1
140
8.0
141
1.0
290
     0
  0
SCALE
  5
57
102
{ACAD_REACTORS
330
47
102
}
330
47
100
AcDbScale
 70
     0
300
10:1
140
10.0
141
1.0
290
     0
  0
SCALE
  5
58
102
{ACAD_REACTORS
330
47
102
}
330
47
100
AcDbScale
 70
     0
300
100:1
140
100.0
141
1.0
290
     0
  0
ENDSEC
  0
EOF
